<?xml version="1.0" standalone="no"?>
  <!DOCTYPE svg PUBLIC "-//W3C//DTD SVG 1.1//EN" "http://www.w3.org/Graphics/SVG/1.1/DTD/svg11.dtd" >
  <svg>
  <metadata>
  Created by font-carrier
  </metadata>
  <defs>
  <font id="SuisseIntl-SemiBold" horiz-adv-x="2813" vert-adv-y="2813" >
    <font-face
      
      font-family="Suisse Intl SemiBold"
      
      font-weight="400"
      
      font-stretch="normal"
      
      units-per-em="1000"
      
      ascent="935"
      
      descent="-195"
      
    />
      <missing-glyph />

      

      
      <glyph glyph-name="uni21" unicode="&#x21;" d="M172 214L194 539L194 725L56 725L56 539L81 214ZM199 0L199 150L51 150L51 0Z"  horiz-adv-x="250" vert-adv-y="1000"  />

      
      <glyph glyph-name="uni22" unicode="&#x22;" d="M182 725L201 466L307 466L327 725ZM14 725L33 466L139 466L159 725Z"  horiz-adv-x="341" vert-adv-y="1000"  />

      
      <glyph glyph-name="uni23" unicode="&#x23;" d="M57 557L46 450L182 450L161 299L22 299L9 193L146 193L120 0L244 0L270 193L403 193L377 0L501 0L527 193L668 193L679 299L542 299L563 450L703 450L716 557L578 557L601 725L477 725L454 557L321 557L344 725L220 725L197 557ZM306 450L439 450L418 299L285 299Z"  horiz-adv-x="725" vert-adv-y="1000"  />

      
      <glyph glyph-name="uni24" unicode="&#x24;" d="M280 810L280 737C165 729 45 670 45 534C45 405 143 351 242 327L280 318L280 94C220 102 169 148 169 241L34 241C31 100 134 0 280-11L280-96L337-96L337-12C468-4 586 68 586 208C586 355 453 400 345 427L337 429L337 630C394 619 442 578 442 495L576 495C576 628 482 723 337 736L337 810ZM457 199C457 127 400 96 337 93L337 304C412 284 457 258 457 199ZM174 541C174 602 227 629 280 632L280 442L272 444C216 457 174 486 174 541Z"  horiz-adv-x="624" vert-adv-y="1000"  />

      
      <glyph glyph-name="uni25" unicode="&#x25;" d="M207 310C323 310 383 389 383 522C383 654 323 732 207 732C90 732 29 654 29 522C29 389 90 310 207 310ZM207 380C160 380 128 422 128 522C128 621 160 661 207 661C252 661 285 621 285 522C285 422 252 380 207 380ZM354 0L855 725L713 725L212 0ZM862-7C978-7 1038 72 1038 205C1038 337 978 415 862 415C745 415 684 337 684 205C684 72 745-7 862-7ZM862 63C815 63 783 105 783 205C783 304 815 344 862 344C907 344 940 304 940 205C940 105 907 63 862 63Z"  horiz-adv-x="1067" vert-adv-y="1000"  />

      
      <glyph glyph-name="uni26" unicode="&#x26;" d="M253-13C345-13 419 22 479 78L549 0L733 0L563 186C603 257 627 335 635 407L499 407C496 368 490 326 475 283L379 389C455 424 514 495 514 576C514 696 408 738 315 738C196 738 107 677 107 577C107 520 137 467 181 412C94 380 10 313 10 203C10 80 109-13 253-13ZM273 91C201 91 151 141 151 210C151 265 187 305 252 332L406 159C371 118 326 91 273 91ZM248 580C248 615 279 639 315 639C354 639 383 614 383 570C383 535 368 490 313 462L312 463C280 498 248 540 248 580Z"  horiz-adv-x="692" vert-adv-y="1000"  />

      
      <glyph glyph-name="uni27" unicode="&#x27;" d="M14 725L33 466L139 466L159 725Z"  horiz-adv-x="173" vert-adv-y="1000"  />

      
      <glyph glyph-name="uni28" unicode="&#x28;" d="M18 275C18 76 97-87 156-175L282-175C215-65 160 91 160 275C160 458 215 614 282 725L156 725C98 637 18 476 18 275Z"  horiz-adv-x="267" vert-adv-y="1000"  />

      
      <glyph glyph-name="uni29" unicode="&#x29;" d="M246 275C246 476 167 637 108 725L-18 725C49 614 104 458 104 275C104 91 49-65-18-175L108-175C167-86 246 75 246 275Z"  horiz-adv-x="267" vert-adv-y="1000"  />

      
      <glyph glyph-name="uni2a" unicode="&#x2a;" d="M236 725L143 725L143 621L46 659L14 572L114 536L53 451L131 398L190 485L255 398L327 452L266 537L368 572L335 659L236 621Z"  horiz-adv-x="382" vert-adv-y="1000"  />

      
      <glyph glyph-name="uni2b" unicode="&#x2b;" d="M402 0L402 207L617 207L617 327L402 327L402 538L277 538L277 327L61 327L61 207L277 207L277 0Z"  horiz-adv-x="678" vert-adv-y="1000"  />

      
      <glyph glyph-name="uni2c" unicode="&#x2c;" d="M51 0L119 0L45-170L124-170L206-11L206 150L51 150Z"  horiz-adv-x="257" vert-adv-y="1000"  />

      
      <glyph glyph-name="uni2d" unicode="&#x2d;" d="M374 207L374 327L43 327L43 207Z"  horiz-adv-x="418" vert-adv-y="1000"  />

      
      <glyph glyph-name="uni2e" unicode="&#x2e;" d="M199 0L199 150L51 150L51 0Z"  horiz-adv-x="250" vert-adv-y="1000"  />

      
      <glyph glyph-name="uni2f" unicode="&#x2f;" d="M123 0L403 725L275 725L-5 0Z"  horiz-adv-x="397" vert-adv-y="1000"  />

      
      <glyph glyph-name="uni30" unicode="&#x30;" d="M332-13C524-13 623 144 623 364C623 584 524 738 332 738C138 738 40 584 40 364C40 144 138-13 332-13ZM332 91C233 91 181 189 181 364C181 539 233 634 332 634C431 634 482 539 482 364C482 189 431 91 332 91Z"  horiz-adv-x="663" vert-adv-y="1000"  />

      
      <glyph glyph-name="uni31" unicode="&#x31;" d="M294 0L294 725L189 725C155 646 104 639 0 636L0 542L156 542L156 0Z"  horiz-adv-x="369" vert-adv-y="1000"  />

      
      <glyph glyph-name="uni32" unicode="&#x32;" d="M301 738C141 738 33 640 36 491L170 491C170 599 232 636 293 636C361 636 400 600 400 536C400 421 256 299 23 112L23 0L556 0L556 116L184 116C407 265 539 408 539 543C539 670 446 738 301 738Z"  horiz-adv-x="579" vert-adv-y="1000"  />

      
      <glyph glyph-name="uni33" unicode="&#x33;" d="M299 91C208 91 163 155 152 228L22 228C30 95 129-13 295-13C448-13 575 61 575 208C575 281 533 352 458 384C514 415 556 472 556 543C556 680 431 738 310 738C143 738 44 651 28 506L159 506C166 582 218 634 302 634C362 634 417 600 417 537C417 469 352 431 248 431L224 431L224 323L253 323C356 323 435 289 435 204C435 136 375 91 299 91Z"  horiz-adv-x="614" vert-adv-y="1000"  />

      
      <glyph glyph-name="uni34" unicode="&#x34;" d="M366 550L366 291L159 291ZM627 291L503 291L503 725L368 725L8 282L8 174L366 174L366 0L503 0L503 174L627 174Z"  horiz-adv-x="634" vert-adv-y="1000"  />

      
      <glyph glyph-name="uni35" unicode="&#x35;" d="M312 91C223 91 180 153 172 228L42 228C50 103 140-13 310-13C459-13 583 79 583 239C583 406 468 494 344 494C276 494 231 477 200 454L220 609L554 609L554 725L107 725L59 326L185 320C200 355 245 386 309 386C376 386 443 338 443 238C443 146 388 91 312 91Z"  horiz-adv-x="623" vert-adv-y="1000"  />

      
      <glyph glyph-name="uni36" unicode="&#x36;" d="M186 235C186 320 243 376 319 376C394 376 449 320 449 235C449 147 394 91 319 91C243 91 186 148 186 235ZM325 633C385 633 432 598 439 538L574 538C566 631 492 738 334 738C117 738 40 554 40 346C40 143 125-13 319-13C476-13 589 84 589 233C589 390 477 481 343 481C267 481 209 451 178 412C178 548 233 633 325 633Z"  horiz-adv-x="628" vert-adv-y="1000"  />

      
      <glyph glyph-name="uni37" unicode="&#x37;" d="M-3 609L391 609C229 458 94 250 83 0L235 0C248 260 341 418 530 609L530 725L-3 725Z"  horiz-adv-x="510" vert-adv-y="1000"  />

      
      <glyph glyph-name="uni38" unicode="&#x38;" d="M320 738C168 738 68 659 68 551C68 487 97 423 157 388C76 343 46 278 46 207C46 66 168-13 320-13C474-13 595 66 595 207C595 278 566 341 485 388C548 427 573 487 573 552C573 659 474 738 320 738ZM320 332C403 332 454 285 454 213C454 141 403 91 320 91C239 91 187 141 187 213C187 285 239 332 320 332ZM439 535C439 475 392 431 320 431C248 431 202 475 202 535C202 595 248 634 320 634C392 634 439 595 439 535Z"  horiz-adv-x="641" vert-adv-y="1000"  />

      
      <glyph glyph-name="uni39" unicode="&#x39;" d="M435 491C435 406 378 350 303 350C228 350 173 406 173 491C173 579 227 633 303 633C378 633 435 577 435 491ZM297 93C237 93 190 127 183 187L48 187C56 95 130-13 288-13C504-13 582 171 582 379C582 582 497 738 303 738C146 738 33 641 33 492C33 336 145 244 278 244C355 244 413 274 444 313C444 178 389 93 297 93Z"  horiz-adv-x="622" vert-adv-y="1000"  />

      
      <glyph glyph-name="uni3a" unicode="&#x3a;" d="M199 388L199 538L51 538L51 388ZM199 0L199 150L51 150L51 0Z"  horiz-adv-x="250" vert-adv-y="1000"  />

      
      <glyph glyph-name="uni3b" unicode="&#x3b;" d="M199 388L199 538L51 538L51 388ZM51 0L119 0L45-170L124-170L206-11L206 150L51 150Z"  horiz-adv-x="257" vert-adv-y="1000"  />

      
      <glyph glyph-name="uni3c" unicode="&#x3c;" d="M76 324L76 210L592-11L592 124L228 267L592 410L592 544Z"  horiz-adv-x="678" vert-adv-y="1000"  />

      
      <glyph glyph-name="uni3d" unicode="&#x3d;" d="M593 314L593 434L85 434L85 314ZM593 103L593 224L85 224L85 103Z"  horiz-adv-x="678" vert-adv-y="1000"  />

      
      <glyph glyph-name="uni3e" unicode="&#x3e;" d="M602 324L86 544L86 410L451 267L86 124L86-11L602 210Z"  horiz-adv-x="678" vert-adv-y="1000"  />

      
      <glyph glyph-name="uni3f" unicode="&#x3f;" d="M275 738C120 738 5 645 5 498L141 498C144 594 200 633 273 633C326 633 379 600 379 548C379 496 336 463 273 426C204 386 166 340 166 242L166 208L301 208L301 239C301 312 330 333 395 371C452 404 518 463 518 555C518 680 397 738 275 738ZM307 0L307 150L159 150L159 0Z"  horiz-adv-x="524" vert-adv-y="1000"  />

      
      <glyph glyph-name="uni40" unicode="&#x40;" d="M408 492C464 492 495 457 495 394C495 306 451 229 372 229C319 229 289 263 289 334C289 417 333 492 408 492ZM605 153C696 153 786 243 786 406C786 625 626 725 433 725C210 725 40 563 40 349C40 136 185-13 396-13C468-13 547 3 614 36L586 103C522 72 464 60 396 60C231 60 120 176 120 346C120 522 246 655 431 655C595 655 709 568 709 402C709 291 666 225 614 225C583 225 568 247 568 292C568 303 569 317 572 332L601 550L530 550C526 531 525 510 522 491C503 538 463 567 407 567C279 567 202 451 202 335C202 210 272 156 350 156C422 156 471 188 502 245C510 185 552 153 605 153Z"  horiz-adv-x="825" vert-adv-y="1000"  />

      
      <glyph glyph-name="uni41" unicode="&#x41;" d="M0 0L146 0L197 147L479 147L530 0L685 0L414 725L270 725ZM338 550L438 264L238 264Z"  horiz-adv-x="685" vert-adv-y="1000"  />

      
      <glyph glyph-name="uni42" unicode="&#x42;" d="M65 0L359 0C508 0 637 58 637 214C637 314 585 356 529 383C566 407 611 468 611 536C611 685 474 725 347 725L65 725ZM208 318L360 318C449 318 491 282 491 214C491 147 450 112 366 112L208 112ZM208 613L356 613C423 613 464 579 464 522C464 458 424 426 356 426L208 426Z"  horiz-adv-x="664" vert-adv-y="1000"  />

      
      <glyph glyph-name="uni43" unicode="&#x43;" d="M557 238C533 139 463 101 377 101C273 101 188 193 188 366C188 534 273 624 382 624C462 624 530 591 557 490L693 490C669 641 553 738 383 738C172 738 40 595 40 366C40 134 163-13 379-13C552-13 674 91 693 238Z"  horiz-adv-x="719" vert-adv-y="1000"  />

      
      <glyph glyph-name="uni44" unicode="&#x44;" d="M535 363C535 144 406 112 274 112L208 112L208 613L274 613C406 613 535 580 535 363ZM65 725L65 0L280 0C510 0 683 75 683 363C683 651 510 725 280 725Z"  horiz-adv-x="719" vert-adv-y="1000"  />

      
      <glyph glyph-name="uni45" unicode="&#x45;" d="M65 0L593 0L593 116L208 116L208 313L572 313L572 429L208 429L208 609L593 609L593 725L65 725Z"  horiz-adv-x="617" vert-adv-y="1000"  />

      
      <glyph glyph-name="uni46" unicode="&#x46;" d="M65 0L208 0L208 313L572 313L572 429L208 429L208 609L593 609L593 725L65 725Z"  horiz-adv-x="593" vert-adv-y="1000"  />

      
      <glyph glyph-name="uni47" unicode="&#x47;" d="M395 738C173 738 40 591 40 366C40 134 167-13 371-13C474-13 548 25 589 85L593 0L706 0L706 385L393 385L393 268L574 268L574 256C574 140 470 101 393 101C269 101 188 193 188 366C188 539 273 624 394 624C475 624 545 585 568 505L704 505C680 639 566 738 395 738Z"  horiz-adv-x="766" vert-adv-y="1000"  />

      
      <glyph glyph-name="uni48" unicode="&#x48;" d="M533 725L533 429L208 429L208 725L65 725L65 0L208 0L208 313L533 313L533 0L676 0L676 725Z"  horiz-adv-x="741" vert-adv-y="1000"  />

      
      <glyph glyph-name="uni49" unicode="&#x49;" d="M208 725L65 725L65 0L208 0Z"  horiz-adv-x="273" vert-adv-y="1000"  />

      
      <glyph glyph-name="uni4a" unicode="&#x4a;" d="M261-13C420-13 510 84 510 237L510 725L367 725L367 237C367 138 324 104 261 104C197 104 157 138 154 237L11 237C14 90 102-13 261-13Z"  horiz-adv-x="575" vert-adv-y="1000"  />

      
      <glyph glyph-name="uni4b" unicode="&#x4b;" d="M208 725L65 725L65 0L208 0L208 218L308 327L522 0L691 0L404 433L671 725L504 725L208 393Z"  horiz-adv-x="681" vert-adv-y="1000"  />

      
      <glyph glyph-name="uni4c" unicode="&#x4c;" d="M208 725L65 725L65 0L561 0L561 116L208 116Z"  horiz-adv-x="561" vert-adv-y="1000"  />

      
      <glyph glyph-name="uni4d" unicode="&#x4d;" d="M519 0L697 545L697 0L830 0L830 725L620 725L449 160L273 725L65 725L65 0L198 0L198 545L377 0Z"  horiz-adv-x="895" vert-adv-y="1000"  />

      
      <glyph glyph-name="uni4e" unicode="&#x4e;" d="M676 0L676 725L541 725L541 172L251 725L65 725L65 0L200 0L200 553L490 0Z"  horiz-adv-x="741" vert-adv-y="1000"  />

      
      <glyph glyph-name="uni4f" unicode="&#x4f;" d="M184 363C184 533 278 624 391 624C504 624 598 533 598 363C598 192 504 101 391 101C278 101 184 192 184 363ZM746 363C746 588 607 738 391 738C175 738 36 588 36 363C36 138 175-13 391-13C607-13 746 138 746 363Z"  horiz-adv-x="782" vert-adv-y="1000"  />

      
      <glyph glyph-name="uni50" unicode="&#x50;" d="M65 725L65 0L208 0L208 255L317 255C485 255 632 300 632 485C632 704 461 725 313 725ZM316 613C393 613 485 603 485 484C485 388 414 366 326 366L208 366L208 613Z"  horiz-adv-x="639" vert-adv-y="1000"  />

      
      <glyph glyph-name="uni51" unicode="&#x51;" d="M746 363C746 588 607 738 391 738C175 738 36 588 36 363C36 138 175-13 391-13C438-13 478-6 517 6L614-119L702-53L616 60C700 125 746 230 746 363ZM184 363C184 533 278 624 391 624C504 624 598 533 598 363C598 276 574 211 535 166L475 246L386 179L441 107C425 103 408 101 391 101C278 101 184 192 184 363Z"  horiz-adv-x="781" vert-adv-y="1000"  />

      
      <glyph glyph-name="uni52" unicode="&#x52;" d="M504 0L663 0L502 314C593 353 633 421 633 505C633 657 542 725 303 725L65 725L65 0L208 0L208 284L326 284L360 284ZM319 613C416 613 486 588 486 504C486 432 438 395 326 395L208 395L208 613Z"  horiz-adv-x="677" vert-adv-y="1000"  />

      
      <glyph glyph-name="uni53" unicode="&#x53;" d="M350 301C427 288 484 263 484 202C484 125 403 101 339 101C253 101 179 132 163 239L25 239C38 83 156-13 334-13C480-13 628 60 628 209C628 360 498 405 380 427L285 444C226 455 184 483 184 534C184 599 257 624 324 624C392 624 466 596 477 511L615 511C607 650 480 738 330 738C197 738 41 674 41 528C41 402 141 342 258 318Z"  horiz-adv-x="651" vert-adv-y="1000"  />

      
      <glyph glyph-name="uni54" unicode="&#x54;" d="M228 0L371 0L371 609L595 609L595 725L5 725L5 609L228 609Z"  horiz-adv-x="600" vert-adv-y="1000"  />

      
      <glyph glyph-name="uni55" unicode="&#x55;" d="M54 725L54 307C54 68 143-13 355-13C567-13 654 68 654 307L654 725L511 725L511 306C511 178 487 101 355 101C223 101 197 178 197 306L197 725Z"  horiz-adv-x="708" vert-adv-y="1000"  />

      
      <glyph glyph-name="uni56" unicode="&#x56;" d="M-5 725L247 0L393 0L643 725L491 725L323 179L150 725Z"  horiz-adv-x="638" vert-adv-y="1000"  />

      
      <glyph glyph-name="uni57" unicode="&#x57;" d="M529 725L362 725L261 197L153 725L5 725L166 0L335 0L445 540L555 0L724 0L885 725L739 725L640 194Z"  horiz-adv-x="890" vert-adv-y="1000"  />

      
      <glyph glyph-name="uni58" unicode="&#x58;" d="M-16 0L145 0L330 257L511 0L683 0L417 378L666 725L504 725L337 492L173 725L1 725L250 371Z"  horiz-adv-x="667" vert-adv-y="1000"  />

      
      <glyph glyph-name="uni59" unicode="&#x59;" d="M-11 725L250 282L250 0L393 0L393 280L660 725L497 725L325 422L156 725Z"  horiz-adv-x="650" vert-adv-y="1000"  />

      
      <glyph glyph-name="uni5a" unicode="&#x5a;" d="M587 725L50 725L50 604L411 604L19 112L19 0L598 0L598 122L197 122L587 613Z"  horiz-adv-x="622" vert-adv-y="1000"  />

      
      <glyph glyph-name="uni5b" unicode="&#x5b;" d="M65 725L65-175L322-175L322-74L188-74L188 625L322 625L322 725Z"  horiz-adv-x="342" vert-adv-y="1000"  />

      
      <glyph glyph-name="uni5c" unicode="&#x5c;" d="M123 725L-5 725L275 0L403 0Z"  horiz-adv-x="397" vert-adv-y="1000"  />

      
      <glyph glyph-name="uni5d" unicode="&#x5d;" d="M20 725L20 625L155 625L155-74L20-74L20-175L277-175L277 725Z"  horiz-adv-x="342" vert-adv-y="1000"  />

      
      <glyph glyph-name="uni5e" unicode="&#x5e;" d="M335 725L221 725L22 338L157 338L278 587L400 338L534 338Z"  horiz-adv-x="555" vert-adv-y="1000"  />

      
      <glyph glyph-name="uni5f" unicode="&#x5f;" d="M470-121L470 0L22 0L22-121Z"  horiz-adv-x="491" vert-adv-y="1000"  />

      
      <glyph glyph-name="uni60" unicode="&#x60;" d="M172 609L274 609L179 725L22 725Z"  horiz-adv-x="296" vert-adv-y="1000"  />

      
      <glyph glyph-name="uni61" unicode="&#x61;" d="M398 206C398 127 362 81 275 81C212 81 182 113 182 152C182 212 243 230 398 246ZM410 67C413 40 415 17 419 0L546 0C535 45 530 93 530 178C530 226 532 299 532 315C532 496 427 552 300 552C161 552 75 474 64 368L193 368C196 428 240 455 293 455C349 455 394 426 394 343L394 334C182 310 40 272 40 145C40 47 131-13 234-13C315-13 371 11 410 67Z"  horiz-adv-x="585" vert-adv-y="1000"  />

      
      <glyph glyph-name="uni62" unicode="&#x62;" d="M321 93C245 93 195 158 195 269C195 377 245 444 321 444C393 444 444 373 444 268C444 163 393 93 321 93ZM200 0L200 68C235 8 299-13 355-13C483-13 589 97 589 269C589 438 485 550 355 550C287 550 229 520 200 469L200 725L62 725L62 0Z"  horiz-adv-x="616" vert-adv-y="1000"  />

      
      <glyph glyph-name="uni63" unicode="&#x63;" d="M297 550C136 550 27 432 27 268C27 105 130-13 291-13C403-13 514 36 546 183L414 183C395 119 346 94 298 94C222 94 168 157 168 270C168 382 225 443 297 443C350 443 398 406 409 354L541 354C522 487 410 550 297 550Z"  horiz-adv-x="566" vert-adv-y="1000"  />

      
      <glyph glyph-name="uni64" unicode="&#x64;" d="M554 0L554 725L416 725L416 469C387 520 329 550 261 550C131 550 27 438 27 269C27 97 133-13 261-13C317-13 381 8 416 68L416 0ZM295 93C223 93 172 163 172 268C172 373 223 444 295 444C371 444 421 377 421 269C421 158 371 93 295 93Z"  horiz-adv-x="616" vert-adv-y="1000"  />

      
      <glyph glyph-name="uni65" unicode="&#x65;" d="M561 231C566 421 463 550 297 550C138 550 27 431 27 271C27 116 128-13 301-13C448-13 526 76 555 156L413 156C385 109 343 94 300 94C234 94 172 139 164 231ZM296 449C354 449 418 417 421 326L166 326C177 417 244 449 296 449Z"  horiz-adv-x="588" vert-adv-y="1000"  />

      
      <glyph glyph-name="uni66" unicode="&#x66;" d="M75 538L-1 538L-1 443L75 443L75 0L213 0L213 443L321 443L321 538L213 538L213 564C213 615 226 623 294 623L321 623L321 725L274 725C139 725 75 704 75 568Z"  horiz-adv-x="329" vert-adv-y="1000"  />

      
      <glyph glyph-name="uni67" unicode="&#x67;" d="M296 124C225 124 172 195 172 284C172 374 225 445 296 445C373 445 420 380 420 285C420 189 373 124 296 124ZM415 538L415 468C391 515 329 550 261 550C126 550 27 438 27 285C27 128 129 19 261 19C317 19 380 41 415 100L415 28C415-53 367-87 295-87C233-87 196-65 184-21L53-21C72-146 173-188 288-188C453-188 552-122 552 54L552 538Z"  horiz-adv-x="615" vert-adv-y="1000"  />

      
      <glyph glyph-name="uni68" unicode="&#x68;" d="M200 725L62 725L62 0L200 0L200 280C200 365 220 439 311 439C389 439 404 378 404 309L404 0L542 0L542 339C542 472 485 550 356 550C289 550 231 522 200 467Z"  horiz-adv-x="596" vert-adv-y="1000"  />

      
      <glyph glyph-name="uni69" unicode="&#x69;" d="M62 538L62 0L200 0L200 538ZM62 725L62 597L200 597L200 725Z"  horiz-adv-x="262" vert-adv-y="1000"  />

      
      <glyph glyph-name="uni6a" unicode="&#x6a;" d="M62 725L62 597L200 597L200 725ZM62 6C62-53 60-72 8-72L-10-72L-10-175L26-175C162-175 200-145 200 4L200 538L62 538Z"  horiz-adv-x="262" vert-adv-y="1000"  />

      
      <glyph glyph-name="uni6b" unicode="&#x6b;" d="M62 725L62 0L200 0L200 162L266 233L407 0L562 0L358 332L551 538L396 538L200 322L200 725Z"  horiz-adv-x="555" vert-adv-y="1000"  />

      
      <glyph glyph-name="uni6c" unicode="&#x6c;" d="M200 725L62 725L62 0L200 0Z"  horiz-adv-x="262" vert-adv-y="1000"  />

      
      <glyph glyph-name="uni6d" unicode="&#x6d;" d="M724 0L862 0L862 339C862 466 815 550 680 550C599 550 546 522 503 462C482 501 441 550 350 550C285 550 231 520 200 467L200 538L62 538L62 0L200 0L200 280C200 362 215 439 307 439C388 439 393 372 393 313L393 0L531 0L531 280C531 362 546 439 638 439C719 439 724 372 724 313Z"  horiz-adv-x="916" vert-adv-y="1000"  />

      
      <glyph glyph-name="uni6e" unicode="&#x6e;" d="M200 538L62 538L62 0L200 0L200 280C200 365 220 439 311 439C389 439 404 378 404 309L404 0L542 0L542 339C542 472 485 550 356 550C289 550 231 522 200 467Z"  horiz-adv-x="596" vert-adv-y="1000"  />

      
      <glyph glyph-name="uni6f" unicode="&#x6f;" d="M296 442C372 442 426 381 426 268C426 155 372 95 296 95C220 95 166 155 166 268C166 381 220 442 296 442ZM296-13C432-13 566 80 566 268C566 457 432 550 296 550C160 550 26 457 26 268C26 80 160-13 296-13Z"  horiz-adv-x="592" vert-adv-y="1000"  />

      
      <glyph glyph-name="uni70" unicode="&#x70;" d="M321 93C245 93 195 158 195 269C195 377 245 444 321 444C393 444 444 373 444 268C444 163 393 93 321 93ZM200-175L200 68C235 8 298-13 354-13C482-13 589 97 589 269C589 438 485 550 355 550C287 550 229 520 200 469L200 538L62 538L62-175Z"  horiz-adv-x="616" vert-adv-y="1000"  />

      
      <glyph glyph-name="uni71" unicode="&#x71;" d="M295 93C223 93 172 163 172 268C172 373 223 444 295 444C371 444 421 377 421 269C421 158 371 93 295 93ZM554 538L416 538L416 469C387 520 329 550 261 550C131 550 27 438 27 269C27 97 133-13 261-13C317-13 381 8 416 68L416-175L554-175Z"  horiz-adv-x="617" vert-adv-y="1000"  />

      
      <glyph glyph-name="uni72" unicode="&#x72;" d="M370 535C361 536 349 537 340 537C277 537 229 511 198 444L198 538L62 538L62 0L200 0L200 282C200 383 245 408 313 408C333 408 350 408 370 405Z"  horiz-adv-x="379" vert-adv-y="1000"  />

      
      <glyph glyph-name="uni73" unicode="&#x73;" d="M494 376C475 500 369 552 257 552C141 552 37 488 37 392C37 294 104 252 205 231L285 214C332 203 373 188 373 148C373 109 336 87 276 87C204 87 168 126 160 178L27 178C40 55 140-13 272-13C394-13 505 53 505 161C505 272 414 299 307 323L235 339C184 350 163 372 163 401C163 434 199 453 250 453C314 453 354 421 365 376Z"  horiz-adv-x="529" vert-adv-y="1000"  />

      
      <glyph glyph-name="uni74" unicode="&#x74;" d="M81 538L5 538L5 443L81 443L81 145C81 38 104 0 228 0L329 0L329 99L287 99C238 99 219 110 219 165L219 443L331 443L331 538L219 538L219 684L81 684Z"  horiz-adv-x="357" vert-adv-y="1000"  />

      
      <glyph glyph-name="uni75" unicode="&#x75;" d="M393 0L531 0L531 538L393 538L393 258C393 173 373 98 281 98C204 98 193 156 193 228L193 538L55 538L55 198C55 66 107-13 236-13C303-13 362 16 393 71Z"  horiz-adv-x="593" vert-adv-y="1000"  />

      
      <glyph glyph-name="uni76" unicode="&#x76;" d="M145 538L0 538L196 0L341 0L534 538L397 538L271 140Z"  horiz-adv-x="534" vert-adv-y="1000"  />

      
      <glyph glyph-name="uni77" unicode="&#x77;" d="M209 166L137 538L0 538L126 0L268 0L367 408L465 0L607 0L734 538L597 538L525 167L440 538L293 538Z"  horiz-adv-x="734" vert-adv-y="1000"  />

      
      <glyph glyph-name="uni78" unicode="&#x78;" d="M534 538L393 538L277 379L165 538L11 538L198 271L0 0L140 0L266 173L388 0L543 0L345 281Z"  horiz-adv-x="543" vert-adv-y="1000"  />

      
      <glyph glyph-name="uni79" unicode="&#x79;" d="M116-175C250-175 277-151 341 16L538 538L398 538L273 150L151 538L0 538L206 2L200-13C176-70 156-69 110-69L58-69L58-175Z"  horiz-adv-x="538" vert-adv-y="1000"  />

      
      <glyph glyph-name="uni7a" unicode="&#x7a;" d="M22 0L478 0L478 109L187 109L470 429L470 538L38 538L38 429L305 429L22 109Z"  horiz-adv-x="498" vert-adv-y="1000"  />

      
      <glyph glyph-name="uni7b" unicode="&#x7b;" d="M311-175L311-66L295-66C227-66 214-46 214 5L214 138C214 230 172 261 119 274L119 277C173 290 214 321 214 413L214 544C214 595 227 615 295 615L311 615L311 725L275 725C139 725 76 691 76 552L76 434C76 371 67 330 0 330L0 221C67 221 76 180 76 117L76-2C76-141 139-175 275-175Z"  horiz-adv-x="331" vert-adv-y="1000"  />

      
      <glyph glyph-name="uni7c" unicode="&#x7c;" d="M65 725L65-90L180-90L180 725Z"  horiz-adv-x="245" vert-adv-y="1000"  />

      
      <glyph glyph-name="uni7d" unicode="&#x7d;" d="M20-175L56-175C192-175 255-141 255-2L255 117C255 180 264 221 331 221L331 330C264 330 255 371 255 434L255 552C255 691 192 725 56 725L20 725L20 615L36 615C104 615 117 595 117 544L117 413C117 321 158 290 212 277L212 274C159 261 117 230 117 138L117 5C117-46 104-66 36-66L20-66Z"  horiz-adv-x="331" vert-adv-y="1000"  />

      
      <glyph glyph-name="uni7e" unicode="&#x7e;" d="M430 292C374 292 326 360 243 360C140 360 97 288 93 173L191 173C192 226 215 242 248 242C309 242 363 173 435 173C536 173 580 245 585 360L487 360C486 308 463 292 430 292Z"  horiz-adv-x="678" vert-adv-y="1000"  />

      
      <glyph glyph-name="unia1" unicode="&#xa1;" d="M194 0L169 325L79 325L56 0L56-175L194-175ZM199 388L199 538L51 538L51 388Z"  horiz-adv-x="250" vert-adv-y="1000"  />

      
      <glyph glyph-name="unia2" unicode="&#xa2;" d="M259 620L259 547C119 528 33 418 33 268C33 118 115 5 259-11L259-89L310-89L310-12C418-9 514 44 546 183L414 183C397 122 357 97 310 94L310 442C361 438 398 402 409 354L541 354C522 485 422 545 310 550L310 620ZM174 270C174 361 207 417 259 436L259 101C204 120 174 178 174 270Z"  horiz-adv-x="565" vert-adv-y="1000"  />

      
      <glyph glyph-name="unia3" unicode="&#xa3;" d="M309 633C381 633 439 596 439 487L574 487C577 640 479 738 309 738C181 738 51 684 51 557C51 496 76 444 101 397L11 397L11 322L139 322C146 303 151 285 151 266C151 168 101 125 21 85L70-13C123 16 167 31 204 31C275 31 340-14 410-14C466-14 535 8 574 29L534 140C487 121 442 109 405 109C347 109 313 135 265 135C246 135 226 132 199 121L198 123C247 158 286 203 286 270C286 287 283 303 276 322L409 322L409 397L242 397C217 445 191 494 191 543C191 596 245 633 309 633Z"  horiz-adv-x="585" vert-adv-y="1000"  />

      
      <glyph glyph-name="unia4" unicode="&#xa4;" d="M79 346C79 294 95 247 123 208L54 138L103 89L172 158C212 127 260 110 315 110C371 110 421 128 462 159L533 89L582 138L510 209C538 248 554 295 554 346C554 397 537 444 510 483L582 555L533 604L462 534C422 566 371 585 315 585C260 585 211 567 171 536L103 604L54 555L123 485C95 446 79 398 79 346ZM190 346C190 423 241 483 314 483C392 483 446 423 446 346C446 272 392 213 314 213C241 213 190 272 190 346Z"  horiz-adv-x="636" vert-adv-y="1000"  />

      
      <glyph glyph-name="unia5" unicode="&#xa5;" d="M590 88L590 176L402 176L402 256L590 256L590 344L446 344L671 725L512 725L336 400L162 725L0 725L221 344L82 344L82 256L264 256L264 176L82 176L82 88L264 88L264 0L402 0L402 88Z"  horiz-adv-x="671" vert-adv-y="1000"  />

      
      <glyph glyph-name="unia6" unicode="&#xa6;" d="M62 725L62 420L177 420L177 725ZM62 215L62-90L177-90L177 215Z"  horiz-adv-x="239" vert-adv-y="1000"  />

      
      <glyph glyph-name="unia7" unicode="&#xa7;" d="M305-94C234-94 201-52 190 24L63 24C71-111 169-193 301-193C425-193 526-124 526-9C526 44 504 84 468 117C536 149 580 200 580 264C580 341 521 389 425 437L289 506C241 529 213 551 213 587C213 618 245 639 298 639C358 639 398 605 406 552L533 552C518 669 428 738 301 738C193 738 83 681 83 580C83 532 103 490 136 458C76 426 32 378 32 317C32 240 85 184 176 139L303 75C367 43 394 21 394-22C394-66 356-94 305-94ZM353 335C413 303 446 280 446 244C446 216 422 191 383 174L371 181L238 249C193 272 161 292 161 331C161 363 184 388 220 401Z"  horiz-adv-x="612" vert-adv-y="1000"  />

      
      <glyph glyph-name="unia8" unicode="&#xa8;" d="M22 609L137 609L137 725L22 725ZM262 725L262 609L377 609L377 725Z"  horiz-adv-x="399" vert-adv-y="1000"  />

      
      <glyph glyph-name="unia9" unicode="&#xa9;" d="M38 361C38 139 205-13 413-13C620-13 787 139 787 361C787 584 620 738 413 738C205 738 38 584 38 361ZM121 361C121 541 249 662 413 662C580 662 704 541 704 361C704 185 580 62 413 62C249 62 121 185 121 361ZM414 244C358 244 321 286 321 362C321 441 362 480 414 480C465 480 499 443 506 396L609 421C593 506 513 566 414 566C291 566 210 485 210 362C210 243 285 156 411 156C515 156 590 214 613 297L509 320C498 264 461 244 414 244Z"  horiz-adv-x="825" vert-adv-y="1000"  />

      
      <glyph glyph-name="uniaa" unicode="&#xaa;" d="M128 431C171 431 207 442 230 474C231 455 231 454 231 438L326 438C321 468 319 531 319 561C319 555 320 628 320 625C323 716 274 751 185 751C94 751 37 699 34 642L123 642C127 671 147 686 176 686C209 686 226 675 226 640L226 628C107 620 24 593 24 520C24 464 71 431 128 431ZM228 565C228 508 199 495 164 495C141 495 123 508 123 527C123 558 165 567 228 572Z"  horiz-adv-x="356" vert-adv-y="1000"  />

      
      <glyph glyph-name="uniab" unicode="&#xab;" d="M170 43L295 43L170 273L295 502L170 502L11 273ZM389 43L514 43L389 273L514 502L389 502L230 273Z"  horiz-adv-x="535" vert-adv-y="1000"  />

      
      <glyph glyph-name="uniac" unicode="&#xac;" d="M472 308L472 93L597 93L597 428L41 428L41 308Z"  horiz-adv-x="678" vert-adv-y="1000"  />

      
      <glyph glyph-name="uniad" unicode="&#xad;" d="M374 207L374 327L43 327L43 207Z"  horiz-adv-x="418" vert-adv-y="1000"  />

      
      <glyph glyph-name="uniae" unicode="&#xae;" d="M38 361C38 139 205-13 413-13C620-13 787 139 787 361C787 584 620 738 413 738C205 738 38 584 38 361ZM121 361C121 541 249 662 413 662C580 662 704 541 704 361C704 185 580 62 413 62C249 62 121 185 121 361ZM401 318L407 318L491 175L611 175L514 334C557 351 587 384 587 444C587 548 508 575 401 575L241 575L241 175L349 175L349 318ZM479 444C479 420 464 401 428 401L349 401L349 491L428 491C464 491 479 467 479 444Z"  horiz-adv-x="825" vert-adv-y="1000"  />

      
      <glyph glyph-name="uniaf" unicode="&#xaf;" d="M335 622L335 717L22 717L22 622Z"  horiz-adv-x="357" vert-adv-y="1000"  />

      
      <glyph glyph-name="unib0" unicode="&#xb0;" d="M8 577C8 489 80 416 168 416C259 416 330 489 330 577C330 666 259 738 168 738C80 738 8 666 8 577ZM95 577C95 621 125 656 168 656C212 656 244 621 244 577C244 534 212 498 168 498C125 498 95 534 95 577Z"  horiz-adv-x="337" vert-adv-y="1000"  />

      
      <glyph glyph-name="unib1" unicode="&#xb1;" d="M276 407L61 407L61 287L276 287L276 155L403 155L403 287L617 287L617 407L403 407L403 538L276 538ZM617 0L617 121L61 121L61 0Z"  horiz-adv-x="678" vert-adv-y="1000"  />

      
      <glyph glyph-name="unib2" unicode="&#xb2;" d="M184 853C90 853 17 795 22 696L117 696C114 763 148 782 181 782C212 782 238 766 238 731C238 664 123 592 18 517L18 438L334 438L334 516L142 516C262 584 334 649 334 737C334 809 269 853 184 853Z"  horiz-adv-x="358" vert-adv-y="1000"  />

      
      <glyph glyph-name="unib3" unicode="&#xb3;" d="M192 501C160 501 125 515 118 566L21 566C32 466 112 431 191 431C275 431 354 472 354 557C354 594 331 638 290 654C319 670 348 704 348 747C348 822 269 853 196 853C116 853 35 820 27 728L122 728C129 772 159 782 192 782C223 782 251 767 251 738C251 703 219 686 168 686L141 686L141 606L170 606C222 606 255 590 255 557C255 520 232 501 192 501Z"  horiz-adv-x="381" vert-adv-y="1000"  />

      
      <glyph glyph-name="unib4" unicode="&#xb4;" d="M274 725L117 725L22 609L124 609Z"  horiz-adv-x="296" vert-adv-y="1000"  />

      
      <glyph glyph-name="unib6" unicode="&#xb6;" d="M0 554C0 434 93 392 166 384L166-89L247-89L247 649L359 649L359-89L441-89L441 725L228 725C92 725 0 662 0 554Z"  horiz-adv-x="504" vert-adv-y="1000"  />

      
      <glyph glyph-name="unib7" unicode="&#xb7;" d="M199 194L199 344L51 344L51 194Z"  horiz-adv-x="250" vert-adv-y="1000"  />

      
      <glyph glyph-name="unib8" unicode="&#xb8;" d="M22-176C55-192 87-195 118-195C177-195 234-165 234-113C234-73 200-46 157-45C138-45 129-45 117-48L149 3L96 3L45-80L75-97C86-90 102-88 113-88C137-88 153-97 153-116C153-139 126-145 97-145C78-145 56-140 39-131Z"  horiz-adv-x="256" vert-adv-y="1000"  />

      
      <glyph glyph-name="unib9" unicode="&#xb9;" d="M200 438L200 846L127 846C110 802 81 780 10 777L10 706L104 706L104 438Z"  horiz-adv-x="247" vert-adv-y="1000"  />

      
      <glyph glyph-name="uniba" unicode="&#xba;" d="M122 591C122 655 152 676 187 676C222 676 253 655 253 591C253 527 222 505 187 505C151 505 122 527 122 591ZM24 591C24 480 102 431 187 431C272 431 350 480 350 591C350 700 272 750 187 750C102 750 24 700 24 591Z"  horiz-adv-x="373" vert-adv-y="1000"  />

      
      <glyph glyph-name="unibb" unicode="&#xbb;" d="M305 273L146 502L22 502L146 273L22 43L146 43ZM524 273L365 502L241 502L365 273L241 43L365 43Z"  horiz-adv-x="535" vert-adv-y="1000"  />

      
      <glyph glyph-name="unibc" unicode="&#xbc;" d="M200 317L200 725L127 725C110 681 81 659 10 656L10 585L104 585L104 317ZM189 0L690 725L548 725L47 0ZM705 283L705 169L612 169ZM854 169L801 169L801 408L713 408L507 159L507 84L705 84L705 0L801 0L801 84L854 84Z"  horiz-adv-x="870" vert-adv-y="1000"  />

      
      <glyph glyph-name="unibd" unicode="&#xbd;" d="M200 317L200 725L127 725C110 681 81 659 10 656L10 585L104 585L104 317ZM189 0L690 725L548 725L47 0ZM674 415C580 415 507 357 512 258L607 258C604 325 638 344 671 344C702 344 728 328 728 293C728 226 613 154 508 79L508 0L824 0L824 78L632 78C752 146 824 211 824 299C824 371 759 415 674 415Z"  horiz-adv-x="849" vert-adv-y="1000"  />

      
      <glyph glyph-name="unibe" unicode="&#xbe;" d="M192 380C160 380 125 394 118 445L21 445C32 345 112 310 191 310C275 310 354 351 354 436C354 473 331 517 290 533C319 549 348 583 348 626C348 701 269 732 196 732C116 732 35 699 27 607L122 607C129 651 159 661 192 661C223 661 251 646 251 617C251 582 219 565 168 565L141 565L141 485L170 485C222 485 255 469 255 436C255 399 232 380 192 380ZM323 0L824 725L682 725L181 0ZM839 283L839 169L746 169ZM988 169L935 169L935 408L847 408L641 159L641 84L839 84L839 0L935 0L935 84L988 84Z"  horiz-adv-x="1004" vert-adv-y="1000"  />

      
      <glyph glyph-name="unibf" unicode="&#xbf;" d="M253-188C408-188 523-98 523 49L388 49C385-46 328-83 255-83C202-83 149-53 149 0C149 52 194 76 255 113C324 153 362 199 362 297L362 331L227 331L227 300C227 228 194 203 129 168C72 135 10 86 10-8C10-132 132-188 253-188ZM369 388L369 538L221 538L221 388Z"  horiz-adv-x="524" vert-adv-y="1000"  />

      
      <glyph glyph-name="unic0" unicode="&#xc0;" d="M0 0L146 0L197 147L479 147L530 0L685 0L414 725L270 725ZM338 550L438 264L238 264ZM286 773L399 773L296 886L127 886Z"  horiz-adv-x="685" vert-adv-y="1000"  />

      
      <glyph glyph-name="unic1" unicode="&#xc1;" d="M0 0L146 0L197 147L479 147L530 0L685 0L414 725L270 725ZM338 550L438 264L238 264ZM558 886L389 886L286 773L399 773Z"  horiz-adv-x="685" vert-adv-y="1000"  />

      
      <glyph glyph-name="unic2" unicode="&#xc2;" d="M0 0L146 0L197 147L479 147L530 0L685 0L414 725L270 725ZM338 550L438 264L238 264ZM403 875L284 875L144 762L274 762L343 811L409 762L540 762Z"  horiz-adv-x="685" vert-adv-y="1000"  />

      
      <glyph glyph-name="unic3" unicode="&#xc3;" d="M0 0L146 0L197 147L479 147L530 0L685 0L414 725L270 725ZM338 550L438 264L238 264ZM400 853C357 853 340 893 278 893C237 893 160 875 141 766L235 766C240 793 254 807 283 807C322 807 344 766 407 766C449 766 524 784 543 893L450 893C443 868 429 853 400 853Z"  horiz-adv-x="685" vert-adv-y="1000"  />

      
      <glyph glyph-name="unic4" unicode="&#xc4;" d="M0 0L146 0L197 147L479 147L530 0L685 0L414 725L270 725ZM338 550L438 264L238 264ZM165 886L165 773L280 773L280 886ZM405 886L405 773L520 773L520 886Z"  horiz-adv-x="685" vert-adv-y="1000"  />

      
      <glyph glyph-name="unic5" unicode="&#xc5;" d="M0 0L146 0L197 147L479 147L530 0L685 0L414 725L270 725ZM338 550L438 264L238 264ZM342 935C293 935 252 901 252 850C252 801 291 765 342 765C393 765 433 801 433 850C433 901 393 935 342 935ZM342 893C365 893 385 875 385 850C385 825 365 808 342 808C319 808 299 825 299 850C299 875 319 893 342 893Z"  horiz-adv-x="685" vert-adv-y="1000"  />

      
      <glyph glyph-name="unic6" unicode="&#xc6;" d="M966 0L966 116L581 116L581 313L945 313L945 429L581 429L581 609L966 609L966 725L438 725L-43 0L108 0L201 147L438 147L438 0ZM438 520L438 264L275 264Z"  horiz-adv-x="990" vert-adv-y="1000"  />

      
      <glyph glyph-name="unic7" unicode="&#xc7;" d="M557 238C533 139 463 101 377 101C273 101 188 193 188 366C188 534 273 624 382 624C462 624 530 591 557 490L693 490C669 641 553 738 383 738C172 738 40 595 40 366C40 134 163-13 379-13C552-13 674 91 693 238ZM260-175C293-191 325-194 356-194C415-194 472-164 472-112C472-72 438-45 395-44C376-44 367-44 355-47L387 4L334 4L283-79L313-96C324-89 340-87 351-87C375-87 391-96 391-115C391-138 364-144 335-144C316-144 294-139 277-130Z"  horiz-adv-x="719" vert-adv-y="1000"  />

      
      <glyph glyph-name="unic8" unicode="&#xc8;" d="M65 0L593 0L593 116L208 116L208 313L572 313L572 429L208 429L208 609L593 609L593 725L65 725ZM303 773L416 773L313 886L144 886Z"  horiz-adv-x="617" vert-adv-y="1000"  />

      
      <glyph glyph-name="unic9" unicode="&#xc9;" d="M65 0L593 0L593 116L208 116L208 313L572 313L572 429L208 429L208 609L593 609L593 725L65 725ZM545 886L376 886L273 773L386 773Z"  horiz-adv-x="617" vert-adv-y="1000"  />

      
      <glyph glyph-name="unica" unicode="&#xca;" d="M65 0L593 0L593 116L208 116L208 313L572 313L572 429L208 429L208 609L593 609L593 725L65 725ZM390 875L271 875L131 762L261 762L330 811L396 762L527 762Z"  horiz-adv-x="617" vert-adv-y="1000"  />

      
      <glyph glyph-name="unicb" unicode="&#xcb;" d="M65 0L593 0L593 116L208 116L208 313L572 313L572 429L208 429L208 609L593 609L593 725L65 725ZM152 886L152 773L267 773L267 886ZM392 886L392 773L507 773L507 886Z"  horiz-adv-x="617" vert-adv-y="1000"  />

      
      <glyph glyph-name="unicc" unicode="&#xcc;" d="M208 725L65 725L65 0L208 0ZM81 773L194 773L91 886L-78 886Z"  horiz-adv-x="273" vert-adv-y="1000"  />

      
      <glyph glyph-name="unicd" unicode="&#xcd;" d="M208 725L65 725L65 0L208 0ZM352 886L183 886L80 773L193 773Z"  horiz-adv-x="273" vert-adv-y="1000"  />

      
      <glyph glyph-name="unice" unicode="&#xce;" d="M208 725L65 725L65 0L208 0ZM198 875L79 875L-61 762L69 762L138 811L204 762L335 762Z"  horiz-adv-x="273" vert-adv-y="1000"  />

      
      <glyph glyph-name="unicf" unicode="&#xcf;" d="M208 725L65 725L65 0L208 0ZM-40 886L-40 773L75 773L75 886ZM200 886L200 773L315 773L315 886Z"  horiz-adv-x="273" vert-adv-y="1000"  />

      
      <glyph glyph-name="unid0" unicode="&#xd0;" d="M86 725L86 424L0 424L0 308L86 308L86 0L301 0C531 0 704 75 704 363C704 651 531 725 301 725ZM556 363C556 144 427 112 295 112L229 112L229 308L357 308L357 424L229 424L229 613L295 613C427 613 556 580 556 363Z"  horiz-adv-x="740" vert-adv-y="1000"  />

      
      <glyph glyph-name="unid1" unicode="&#xd1;" d="M676 0L676 725L541 725L541 172L251 725L65 725L65 0L200 0L200 553L490 0ZM448 853C405 853 388 893 326 893C285 893 208 875 189 766L283 766C288 793 302 807 331 807C370 807 392 766 455 766C497 766 572 784 591 893L498 893C491 868 477 853 448 853Z"  horiz-adv-x="741" vert-adv-y="1000"  />

      
      <glyph glyph-name="unid2" unicode="&#xd2;" d="M184 363C184 533 278 624 391 624C504 624 598 533 598 363C598 192 504 101 391 101C278 101 184 192 184 363ZM746 363C746 588 607 738 391 738C175 738 36 588 36 363C36 138 175-13 391-13C607-13 746 138 746 363ZM335 773L448 773L345 886L176 886Z"  horiz-adv-x="782" vert-adv-y="1000"  />

      
      <glyph glyph-name="unid3" unicode="&#xd3;" d="M184 363C184 533 278 624 391 624C504 624 598 533 598 363C598 192 504 101 391 101C278 101 184 192 184 363ZM746 363C746 588 607 738 391 738C175 738 36 588 36 363C36 138 175-13 391-13C607-13 746 138 746 363ZM607 886L438 886L335 773L448 773Z"  horiz-adv-x="782" vert-adv-y="1000"  />

      
      <glyph glyph-name="unid4" unicode="&#xd4;" d="M184 363C184 533 278 624 391 624C504 624 598 533 598 363C598 192 504 101 391 101C278 101 184 192 184 363ZM746 363C746 588 607 738 391 738C175 738 36 588 36 363C36 138 175-13 391-13C607-13 746 138 746 363ZM452 875L333 875L193 762L323 762L392 811L458 762L589 762Z"  horiz-adv-x="782" vert-adv-y="1000"  />

      
      <glyph glyph-name="unid5" unicode="&#xd5;" d="M184 363C184 533 278 624 391 624C504 624 598 533 598 363C598 192 504 101 391 101C278 101 184 192 184 363ZM746 363C746 588 607 738 391 738C175 738 36 588 36 363C36 138 175-13 391-13C607-13 746 138 746 363ZM449 853C406 853 389 893 327 893C286 893 209 875 190 766L284 766C289 793 303 807 332 807C371 807 393 766 456 766C498 766 573 784 592 893L499 893C492 868 478 853 449 853Z"  horiz-adv-x="782" vert-adv-y="1000"  />

      
      <glyph glyph-name="unid6" unicode="&#xd6;" d="M184 363C184 533 278 624 391 624C504 624 598 533 598 363C598 192 504 101 391 101C278 101 184 192 184 363ZM746 363C746 588 607 738 391 738C175 738 36 588 36 363C36 138 175-13 391-13C607-13 746 138 746 363ZM214 886L214 773L329 773L329 886ZM454 886L454 773L569 773L569 886Z"  horiz-adv-x="782" vert-adv-y="1000"  />

      
      <glyph glyph-name="unid7" unicode="&#xd7;" d="M576 117L416 277L575 436L503 510L343 350L186 507L105 427L262 270L103 109L176 37L335 196L496 36Z"  horiz-adv-x="678" vert-adv-y="1000"  />

      
      <glyph glyph-name="unid8" unicode="&#xd8;" d="M746 363C746 468 716 557 661 622L718 689L662 735L608 672C549 715 476 738 391 738C175 738 36 588 36 363C36 256 66 167 122 102L58 27L113-20L175 52C232 9 306-13 391-13C607-13 746 138 746 363ZM184 363C184 533 278 624 391 624C442 624 486 607 523 572L216 212C195 253 184 303 184 363ZM598 363C598 192 504 101 391 101C340 101 296 118 260 152L567 512C588 471 598 421 598 363Z"  horiz-adv-x="781" vert-adv-y="1000"  />

      
      <glyph glyph-name="unid9" unicode="&#xd9;" d="M54 725L54 307C54 68 143-13 355-13C567-13 654 68 654 307L654 725L511 725L511 306C511 178 487 101 355 101C223 101 197 178 197 306L197 725ZM298 773L411 773L308 886L139 886Z"  horiz-adv-x="708" vert-adv-y="1000"  />

      
      <glyph glyph-name="unida" unicode="&#xda;" d="M54 725L54 307C54 68 143-13 355-13C567-13 654 68 654 307L654 725L511 725L511 306C511 178 487 101 355 101C223 101 197 178 197 306L197 725ZM570 886L401 886L298 773L411 773Z"  horiz-adv-x="708" vert-adv-y="1000"  />

      
      <glyph glyph-name="unidb" unicode="&#xdb;" d="M54 725L54 307C54 68 143-13 355-13C567-13 654 68 654 307L654 725L511 725L511 306C511 178 487 101 355 101C223 101 197 178 197 306L197 725ZM415 875L296 875L156 762L286 762L355 811L421 762L552 762Z"  horiz-adv-x="708" vert-adv-y="1000"  />

      
      <glyph glyph-name="unidc" unicode="&#xdc;" d="M54 725L54 307C54 68 143-13 355-13C567-13 654 68 654 307L654 725L511 725L511 306C511 178 487 101 355 101C223 101 197 178 197 306L197 725ZM177 886L177 773L292 773L292 886ZM417 886L417 773L532 773L532 886Z"  horiz-adv-x="708" vert-adv-y="1000"  />

      
      <glyph glyph-name="unidd" unicode="&#xdd;" d="M-11 725L250 282L250 0L393 0L393 280L660 725L497 725L325 422L156 725ZM540 886L371 886L268 773L381 773Z"  horiz-adv-x="650" vert-adv-y="1000"  />

      
      <glyph glyph-name="unide" unicode="&#xde;" d="M211 609L211 725L65 725L65 0L211 0L211 139L308 139C476 139 616 184 616 369C616 587 452 609 304 609ZM300 493C377 493 469 485 469 368C469 272 398 254 310 254L211 254L211 493Z"  horiz-adv-x="619" vert-adv-y="1000"  />

      
      <glyph glyph-name="unidf" unicode="&#xdf;" d="M200 0L200 471C200 538 209 570 228 593C251 624 287 634 328 634C400 634 439 600 439 544C439 476 391 453 299 453L285 453L285 342L304 342C405 342 479 312 479 215C479 140 427 96 351 96C320 96 285 102 258 111L237 0C280-11 312-13 356-13C512-13 619 68 619 216C619 323 561 386 497 410C532 426 575 473 575 552C575 682 467 738 331 738C246 738 173 721 122 670C85 633 62 578 62 470L62 0Z"  horiz-adv-x="652" vert-adv-y="1000"  />

      
      <glyph glyph-name="unie0" unicode="&#xe0;" d="M398 206C398 127 362 81 275 81C212 81 182 113 182 152C182 212 243 230 398 246ZM410 67C413 40 415 17 419 0L546 0C535 45 530 93 530 178C530 226 532 299 532 315C532 496 427 552 300 552C161 552 75 474 64 368L193 368C196 428 240 455 293 455C349 455 394 426 394 343L394 334C182 310 40 272 40 145C40 47 131-13 234-13C315-13 371 11 410 67ZM239 609L341 609L246 725L89 725Z"  horiz-adv-x="585" vert-adv-y="1000"  />

      
      <glyph glyph-name="unie1" unicode="&#xe1;" d="M398 206C398 127 362 81 275 81C212 81 182 113 182 152C182 212 243 230 398 246ZM410 67C413 40 415 17 419 0L546 0C535 45 530 93 530 178C530 226 532 299 532 315C532 496 427 552 300 552C161 552 75 474 64 368L193 368C196 428 240 455 293 455C349 455 394 426 394 343L394 334C182 310 40 272 40 145C40 47 131-13 234-13C315-13 371 11 410 67ZM491 725L334 725L239 609L341 609Z"  horiz-adv-x="585" vert-adv-y="1000"  />

      
      <glyph glyph-name="unie2" unicode="&#xe2;" d="M398 206C398 127 362 81 275 81C212 81 182 113 182 152C182 212 243 230 398 246ZM410 67C413 40 415 17 419 0L546 0C535 45 530 93 530 178C530 226 532 299 532 315C532 496 427 552 300 552C161 552 75 474 64 368L193 368C196 428 240 455 293 455C349 455 394 426 394 343L394 334C182 310 40 272 40 145C40 47 131-13 234-13C315-13 371 11 410 67ZM339 725L240 725L93 609L214 609L290 653L366 609L487 609Z"  horiz-adv-x="585" vert-adv-y="1000"  />

      
      <glyph glyph-name="unie3" unicode="&#xe3;" d="M398 206C398 127 362 81 275 81C212 81 182 113 182 152C182 212 243 230 398 246ZM410 67C413 40 415 17 419 0L546 0C535 45 530 93 530 178C530 226 532 299 532 315C532 496 427 552 300 552C161 552 75 474 64 368L193 368C196 428 240 455 293 455C349 455 394 426 394 343L394 334C182 310 40 272 40 145C40 47 131-13 234-13C315-13 371 11 410 67ZM349 692C303 692 283 736 219 736C176 736 105 726 86 609L181 609C186 638 203 653 230 653C270 653 298 609 361 609C404 609 475 618 494 736L399 736C394 707 377 692 349 692Z"  horiz-adv-x="585" vert-adv-y="1000"  />

      
      <glyph glyph-name="unie4" unicode="&#xe4;" d="M398 206C398 127 362 81 275 81C212 81 182 113 182 152C182 212 243 230 398 246ZM410 67C413 40 415 17 419 0L546 0C535 45 530 93 530 178C530 226 532 299 532 315C532 496 427 552 300 552C161 552 75 474 64 368L193 368C196 428 240 455 293 455C349 455 394 426 394 343L394 334C182 310 40 272 40 145C40 47 131-13 234-13C315-13 371 11 410 67ZM113 609L228 609L228 725L113 725ZM353 725L353 609L468 609L468 725Z"  horiz-adv-x="585" vert-adv-y="1000"  />

      
      <glyph glyph-name="unie5" unicode="&#xe5;" d="M398 206C398 127 362 81 275 81C212 81 182 113 182 152C182 212 243 230 398 246ZM410 67C413 40 415 17 419 0L546 0C535 45 530 93 530 178C530 226 532 299 532 315C532 496 427 552 300 552C161 552 75 474 64 368L193 368C196 428 240 455 293 455C349 455 394 426 394 343L394 334C182 310 40 272 40 145C40 47 131-13 234-13C315-13 371 11 410 67ZM291 785C239 785 196 748 196 696C196 644 238 607 291 607C343 607 385 645 385 696C385 748 342 785 291 785ZM291 737C314 737 332 720 332 696C332 673 314 656 291 656C268 656 250 673 250 696C250 720 268 737 291 737Z"  horiz-adv-x="585" vert-adv-y="1000"  />

      
      <glyph glyph-name="unie6" unicode="&#xe6;" d="M915 231C920 421 817 550 651 550C576 550 517 524 474 481C437 533 377 552 301 552C162 552 76 474 65 368L194 368C197 428 241 455 294 455C350 455 394 426 394 343L394 334C182 310 40 272 40 145C40 47 131-13 234-13C313-13 399 9 447 90C490 26 558-13 655-13C802-13 880 76 909 156L767 156C739 109 697 94 654 94C588 94 526 139 518 231ZM398 206C398 127 362 81 275 81C212 81 182 113 182 152C182 212 243 230 398 246ZM650 449C708 449 772 417 775 326L520 326C531 417 598 449 650 449Z"  horiz-adv-x="942" vert-adv-y="1000"  />

      
      <glyph glyph-name="unie7" unicode="&#xe7;" d="M297 550C136 550 27 432 27 268C27 105 130-13 291-13C403-13 514 36 546 183L414 183C395 119 346 94 298 94C222 94 168 157 168 270C168 382 225 443 297 443C350 443 398 406 409 354L541 354C522 487 410 550 297 550ZM177-176C210-192 242-195 273-195C332-195 389-165 389-113C389-73 355-46 312-45C293-45 284-45 272-48L304 3L251 3L200-80L230-97C241-90 257-88 268-88C292-88 308-97 308-116C308-139 281-145 252-145C233-145 211-140 194-131Z"  horiz-adv-x="566" vert-adv-y="1000"  />

      
      <glyph glyph-name="unie8" unicode="&#xe8;" d="M561 231C566 421 463 550 297 550C138 550 27 431 27 271C27 116 128-13 301-13C448-13 526 76 555 156L413 156C385 109 343 94 300 94C234 94 172 139 164 231ZM296 449C354 449 418 417 421 326L166 326C177 417 244 449 296 449ZM240 609L342 609L247 725L90 725Z"  horiz-adv-x="588" vert-adv-y="1000"  />

      
      <glyph glyph-name="unie9" unicode="&#xe9;" d="M561 231C566 421 463 550 297 550C138 550 27 431 27 271C27 116 128-13 301-13C448-13 526 76 555 156L413 156C385 109 343 94 300 94C234 94 172 139 164 231ZM296 449C354 449 418 417 421 326L166 326C177 417 244 449 296 449ZM492 725L335 725L240 609L342 609Z"  horiz-adv-x="588" vert-adv-y="1000"  />

      
      <glyph glyph-name="uniea" unicode="&#xea;" d="M561 231C566 421 463 550 297 550C138 550 27 431 27 271C27 116 128-13 301-13C448-13 526 76 555 156L413 156C385 109 343 94 300 94C234 94 172 139 164 231ZM296 449C354 449 418 417 421 326L166 326C177 417 244 449 296 449ZM345 725L246 725L99 609L220 609L296 653L372 609L493 609Z"  horiz-adv-x="588" vert-adv-y="1000"  />

      
      <glyph glyph-name="unieb" unicode="&#xeb;" d="M561 231C566 421 463 550 297 550C138 550 27 431 27 271C27 116 128-13 301-13C448-13 526 76 555 156L413 156C385 109 343 94 300 94C234 94 172 139 164 231ZM296 449C354 449 418 417 421 326L166 326C177 417 244 449 296 449ZM114 609L229 609L229 725L114 725ZM354 725L354 609L469 609L469 725Z"  horiz-adv-x="588" vert-adv-y="1000"  />

      
      <glyph glyph-name="uniec" unicode="&#xec;" d="M62 538L62 0L200 0L200 538ZM81 609L183 609L88 725L-69 725Z"  horiz-adv-x="262" vert-adv-y="1000"  />

      
      <glyph glyph-name="unied" unicode="&#xed;" d="M62 538L62 0L200 0L200 538ZM332 725L175 725L80 609L182 609Z"  horiz-adv-x="262" vert-adv-y="1000"  />

      
      <glyph glyph-name="uniee" unicode="&#xee;" d="M62 538L62 0L200 0L200 538ZM181 725L82 725L-65 609L56 609L132 653L208 609L329 609Z"  horiz-adv-x="262" vert-adv-y="1000"  />

      
      <glyph glyph-name="unief" unicode="&#xef;" d="M62 538L62 0L200 0L200 538ZM-45 609L70 609L70 725L-45 725ZM195 725L195 609L310 609L310 725Z"  horiz-adv-x="262" vert-adv-y="1000"  />

      
      <glyph glyph-name="unif0" unicode="&#xf0;" d="M325 705C301 720 277 734 250 746L153 686C178 676 205 663 232 648L159 603L216 576L282 616C338 577 388 529 413 469L412 468C388 511 330 550 261 550C131 550 27 444 27 264C27 91 137-13 285-13C434-13 550 91 550 311C550 479 477 595 374 672L442 714L384 742ZM290 93C214 93 172 163 172 268C172 373 214 444 290 444C366 444 414 377 414 269C414 158 366 93 290 93Z"  horiz-adv-x="582" vert-adv-y="1000"  />

      
      <glyph glyph-name="unif1" unicode="&#xf1;" d="M200 538L62 538L62 0L200 0L200 280C200 365 220 439 311 439C389 439 404 378 404 309L404 0L542 0L542 339C542 472 485 550 356 550C289 550 231 522 200 467ZM371 692C325 692 305 736 241 736C198 736 127 726 108 609L203 609C208 638 225 653 252 653C292 653 320 609 383 609C426 609 497 618 516 736L421 736C416 707 399 692 371 692Z"  horiz-adv-x="596" vert-adv-y="1000"  />

      
      <glyph glyph-name="unif2" unicode="&#xf2;" d="M296 442C372 442 426 381 426 268C426 155 372 95 296 95C220 95 166 155 166 268C166 381 220 442 296 442ZM296-13C432-13 566 80 566 268C566 457 432 550 296 550C160 550 26 457 26 268C26 80 160-13 296-13ZM241 609L343 609L248 725L91 725Z"  horiz-adv-x="592" vert-adv-y="1000"  />

      
      <glyph glyph-name="unif3" unicode="&#xf3;" d="M296 442C372 442 426 381 426 268C426 155 372 95 296 95C220 95 166 155 166 268C166 381 220 442 296 442ZM296-13C432-13 566 80 566 268C566 457 432 550 296 550C160 550 26 457 26 268C26 80 160-13 296-13ZM493 725L336 725L241 609L343 609Z"  horiz-adv-x="592" vert-adv-y="1000"  />

      
      <glyph glyph-name="unif4" unicode="&#xf4;" d="M296 442C372 442 426 381 426 268C426 155 372 95 296 95C220 95 166 155 166 268C166 381 220 442 296 442ZM296-13C432-13 566 80 566 268C566 457 432 550 296 550C160 550 26 457 26 268C26 80 160-13 296-13ZM341 725L242 725L95 609L216 609L292 653L368 609L489 609Z"  horiz-adv-x="592" vert-adv-y="1000"  />

      
      <glyph glyph-name="unif5" unicode="&#xf5;" d="M296 442C372 442 426 381 426 268C426 155 372 95 296 95C220 95 166 155 166 268C166 381 220 442 296 442ZM296-13C432-13 566 80 566 268C566 457 432 550 296 550C160 550 26 457 26 268C26 80 160-13 296-13ZM351 692C305 692 285 736 221 736C178 736 107 726 88 609L183 609C188 638 205 653 232 653C272 653 300 609 363 609C406 609 477 618 496 736L401 736C396 707 379 692 351 692Z"  horiz-adv-x="592" vert-adv-y="1000"  />

      
      <glyph glyph-name="unif6" unicode="&#xf6;" d="M296 442C372 442 426 381 426 268C426 155 372 95 296 95C220 95 166 155 166 268C166 381 220 442 296 442ZM296-13C432-13 566 80 566 268C566 457 432 550 296 550C160 550 26 457 26 268C26 80 160-13 296-13ZM115 609L230 609L230 725L115 725ZM355 725L355 609L470 609L470 725Z"  horiz-adv-x="592" vert-adv-y="1000"  />

      
      <glyph glyph-name="unif7" unicode="&#xf7;" d="M264 23L412 23L412 162L264 162ZM264 374L412 374L412 514L264 514ZM607 208L607 328L72 328L72 208Z"  horiz-adv-x="678" vert-adv-y="1000"  />

      
      <glyph glyph-name="unif8" unicode="&#xf8;" d="M296-13C432-13 566 80 566 268C566 349 541 411 502 458L553 516L504 560L454 502C407 534 352 550 296 550C160 550 26 457 26 268C26 188 48 125 87 80L26 9L74-36L136 35C183 3 239-13 296-13ZM426 268C426 155 372 95 296 95C263 95 235 105 214 126L413 354C421 330 426 301 426 268ZM296 442C327 442 354 432 376 412L178 184C170 208 166 236 166 268C166 381 220 442 296 442Z"  horiz-adv-x="592" vert-adv-y="1000"  />

      
      <glyph glyph-name="unif9" unicode="&#xf9;" d="M393 0L531 0L531 538L393 538L393 258C393 173 373 98 281 98C204 98 193 156 193 228L193 538L55 538L55 198C55 66 107-13 236-13C303-13 362 16 393 71ZM262 609L364 609L269 725L112 725Z"  horiz-adv-x="593" vert-adv-y="1000"  />

      
      <glyph glyph-name="unifa" unicode="&#xfa;" d="M393 0L531 0L531 538L393 538L393 258C393 173 373 98 281 98C204 98 193 156 193 228L193 538L55 538L55 198C55 66 107-13 236-13C303-13 362 16 393 71ZM494 725L337 725L242 609L344 609Z"  horiz-adv-x="593" vert-adv-y="1000"  />

      
      <glyph glyph-name="unifb" unicode="&#xfb;" d="M393 0L531 0L531 538L393 538L393 258C393 173 373 98 281 98C204 98 193 156 193 228L193 538L55 538L55 198C55 66 107-13 236-13C303-13 362 16 393 71ZM342 725L243 725L96 609L217 609L293 653L369 609L490 609Z"  horiz-adv-x="593" vert-adv-y="1000"  />

      
      <glyph glyph-name="unifc" unicode="&#xfc;" d="M393 0L531 0L531 538L393 538L393 258C393 173 373 98 281 98C204 98 193 156 193 228L193 538L55 538L55 198C55 66 107-13 236-13C303-13 362 16 393 71ZM116 609L231 609L231 725L116 725ZM356 725L356 609L471 609L471 725Z"  horiz-adv-x="593" vert-adv-y="1000"  />

      
      <glyph glyph-name="unifd" unicode="&#xfd;" d="M116-175C250-175 277-151 341 16L538 538L398 538L273 150L151 538L0 538L206 2L200-13C176-70 156-69 110-69L58-69L58-175ZM470 725L313 725L218 609L320 609Z"  horiz-adv-x="538" vert-adv-y="1000"  />

      
      <glyph glyph-name="unife" unicode="&#xfe;" d="M321 93C245 93 195 158 195 269C195 377 245 444 321 444C393 444 444 373 444 268C444 163 393 93 321 93ZM200-175L200 68C235 8 296-13 352-13C480-13 589 97 589 269C589 438 482 550 352 550C284 550 229 520 200 469L200 725L62 725L62-175Z"  horiz-adv-x="616" vert-adv-y="1000"  />

      
      <glyph glyph-name="uniff" unicode="&#xff;" d="M116-175C250-175 277-151 341 16L538 538L398 538L273 150L151 538L0 538L206 2L200-13C176-70 156-69 110-69L58-69L58-175ZM102 609L217 609L217 725L102 725ZM342 725L342 609L457 609L457 725Z"  horiz-adv-x="538" vert-adv-y="1000"  />

      
      <glyph glyph-name="uni0102" unicode="&#x0102;" d="M0 0L146 0L197 147L479 147L530 0L685 0L414 725L270 725ZM338 550L438 264L238 264ZM415 886C411 854 389 840 342 840C295 840 274 854 270 886L173 886C180 803 241 769 341 769C445 769 504 803 512 886Z"  horiz-adv-x="685" vert-adv-y="1000"  />

      
      <glyph glyph-name="uni0100" unicode="&#x0100;" d="M0 0L146 0L197 147L479 147L530 0L685 0L414 725L270 725ZM338 550L438 264L238 264ZM499 782L499 877L186 877L186 782Z"  horiz-adv-x="685" vert-adv-y="1000"  />

      
      <glyph glyph-name="uni0104" unicode="&#x0104;" d="M0 0L146 0L197 147L479 147L530 0C494-24 473-56 473-96C473-163 539-188 611-188C638-188 658-187 685-180L685-98C670-102 657-106 637-106C613-106 592-99 592-72C592-45 634-25 685 0L414 725L270 725ZM338 550L438 264L238 264Z"  horiz-adv-x="685" vert-adv-y="1000"  />

      
      <glyph glyph-name="uni0106" unicode="&#x0106;" d="M557 238C533 139 463 101 377 101C273 101 188 193 188 366C188 534 273 624 382 624C462 624 530 591 557 490L693 490C669 641 553 738 383 738C172 738 40 595 40 366C40 134 163-13 379-13C552-13 674 91 693 238ZM582 886L413 886L310 773L423 773Z"  horiz-adv-x="719" vert-adv-y="1000"  />

      
      <glyph glyph-name="uni010C" unicode="&#x010C;" d="M557 238C533 139 463 101 377 101C273 101 188 193 188 366C188 534 273 624 382 624C462 624 530 591 557 490L693 490C669 641 553 738 383 738C172 738 40 595 40 366C40 134 163-13 379-13C552-13 674 91 693 238ZM318 773L437 773L577 886L447 886L378 836L312 886L181 886Z"  horiz-adv-x="719" vert-adv-y="1000"  />

      
      <glyph glyph-name="uni0108" unicode="&#x0108;" d="M557 238C533 139 463 101 377 101C273 101 188 193 188 366C188 534 273 624 382 624C462 624 530 591 557 490L693 490C669 641 553 738 383 738C172 738 40 595 40 366C40 134 163-13 379-13C552-13 674 91 693 238ZM443 875L324 875L184 762L314 762L383 811L449 762L580 762Z"  horiz-adv-x="719" vert-adv-y="1000"  />

      
      <glyph glyph-name="uni010A" unicode="&#x010A;" d="M557 238C533 139 463 101 377 101C273 101 188 193 188 366C188 534 273 624 382 624C462 624 530 591 557 490L693 490C669 641 553 738 383 738C172 738 40 595 40 366C40 134 163-13 379-13C552-13 674 91 693 238ZM311 886L311 773L454 773L454 886Z"  horiz-adv-x="719" vert-adv-y="1000"  />

      
      <glyph glyph-name="uni010E" unicode="&#x010E;" d="M535 363C535 144 406 112 274 112L208 112L208 613L274 613C406 613 535 580 535 363ZM65 725L65 0L280 0C510 0 683 75 683 363C683 651 510 725 280 725ZM281 773L400 773L540 886L410 886L341 836L275 886L144 886Z"  horiz-adv-x="719" vert-adv-y="1000"  />

      
      <glyph glyph-name="uni0110" unicode="&#x0110;" d="M86 725L86 424L0 424L0 308L86 308L86 0L301 0C531 0 704 75 704 363C704 651 531 725 301 725ZM556 363C556 144 427 112 295 112L229 112L229 308L357 308L357 424L229 424L229 613L295 613C427 613 556 580 556 363Z"  horiz-adv-x="740" vert-adv-y="1000"  />

      
      <glyph glyph-name="uni0114" unicode="&#x0114;" d="M65 0L593 0L593 116L208 116L208 313L572 313L572 429L208 429L208 609L593 609L593 725L65 725ZM410 886C406 854 384 840 337 840C290 840 269 854 265 886L168 886C175 803 236 769 336 769C440 769 499 803 507 886Z"  horiz-adv-x="617" vert-adv-y="1000"  />

      
      <glyph glyph-name="uni011A" unicode="&#x011A;" d="M65 0L593 0L593 116L208 116L208 313L572 313L572 429L208 429L208 609L593 609L593 725L65 725ZM273 773L392 773L532 886L402 886L333 836L267 886L136 886Z"  horiz-adv-x="617" vert-adv-y="1000"  />

      
      <glyph glyph-name="uni0112" unicode="&#x0112;" d="M65 0L593 0L593 116L208 116L208 313L572 313L572 429L208 429L208 609L593 609L593 725L65 725ZM486 782L486 877L173 877L173 782Z"  horiz-adv-x="617" vert-adv-y="1000"  />

      
      <glyph glyph-name="uni0118" unicode="&#x0118;" d="M450 0C409-23 381-56 381-96C381-163 447-188 519-188C546-188 566-187 593-180L593-98C578-102 565-106 545-106C521-106 500-99 500-72C500-45 542-25 593 0ZM65 0L593 0L593 116L208 116L208 313L572 313L572 429L208 429L208 609L593 609L593 725L65 725Z"  horiz-adv-x="617" vert-adv-y="1000"  />

      
      <glyph glyph-name="uni0116" unicode="&#x0116;" d="M65 0L593 0L593 116L208 116L208 313L572 313L572 429L208 429L208 609L593 609L593 725L65 725ZM258 886L258 773L401 773L401 886Z"  horiz-adv-x="617" vert-adv-y="1000"  />

      
      <glyph glyph-name="uni011E" unicode="&#x011E;" d="M395 738C173 738 40 591 40 366C40 134 167-13 371-13C474-13 548 25 589 85L593 0L706 0L706 385L393 385L393 268L574 268L574 256C574 140 470 101 393 101C269 101 188 193 188 366C188 539 273 624 394 624C475 624 545 585 568 505L704 505C680 639 566 738 395 738ZM469 886C465 854 443 840 396 840C349 840 328 854 324 886L227 886C234 803 295 769 395 769C499 769 558 803 566 886Z"  horiz-adv-x="766" vert-adv-y="1000"  />

      
      <glyph glyph-name="uni011C" unicode="&#x011C;" d="M395 738C173 738 40 591 40 366C40 134 167-13 371-13C474-13 548 25 589 85L593 0L706 0L706 385L393 385L393 268L574 268L574 256C574 140 470 101 393 101C269 101 188 193 188 366C188 539 273 624 394 624C475 624 545 585 568 505L704 505C680 639 566 738 395 738ZM454 875L335 875L195 762L325 762L394 811L460 762L591 762Z"  horiz-adv-x="766" vert-adv-y="1000"  />

      
      <glyph glyph-name="uni0122" unicode="&#x0122;" d="M395 738C173 738 40 591 40 366C40 134 167-13 371-13C474-13 548 25 589 85L593 0L706 0L706 385L393 385L393 268L574 268L574 256C574 140 470 101 393 101C269 101 188 193 188 366C188 539 273 624 394 624C475 624 545 585 568 505L704 505C680 639 566 738 395 738ZM322-136L358-136L319-231L384-231L428-142L428-36L322-36Z"  horiz-adv-x="766" vert-adv-y="1000"  />

      
      <glyph glyph-name="uni0120" unicode="&#x0120;" d="M395 738C173 738 40 591 40 366C40 134 167-13 371-13C474-13 548 25 589 85L593 0L706 0L706 385L393 385L393 268L574 268L574 256C574 140 470 101 393 101C269 101 188 193 188 366C188 539 273 624 394 624C475 624 545 585 568 505L704 505C680 639 566 738 395 738ZM323 886L323 773L466 773L466 886Z"  horiz-adv-x="766" vert-adv-y="1000"  />

      
      <glyph glyph-name="uni0126" unicode="&#x0126;" d="M533 725L533 625L208 625L208 725L65 725L65 625L10 625L10 509L65 509L65 0L208 0L208 313L533 313L533 0L676 0L676 509L730 509L730 625L676 625L676 725ZM208 429L208 509L533 509L533 429Z"  horiz-adv-x="740" vert-adv-y="1000"  />

      
      <glyph glyph-name="uni0124" unicode="&#x0124;" d="M533 725L533 429L208 429L208 725L65 725L65 0L208 0L208 313L533 313L533 0L676 0L676 725ZM431 875L312 875L172 762L302 762L371 811L437 762L568 762Z"  horiz-adv-x="740" vert-adv-y="1000"  />

      
      <glyph glyph-name="uni012C" unicode="&#x012C;" d="M208 725L65 725L65 0L208 0ZM210 886C206 854 184 840 137 840C90 840 69 854 65 886L-32 886C-25 803 36 769 136 769C240 769 299 803 307 886Z"  horiz-adv-x="273" vert-adv-y="1000"  />

      
      <glyph glyph-name="uni0130" unicode="&#x0130;" d="M208 725L65 725L65 0L208 0ZM65 886L65 773L208 773L208 886Z"  horiz-adv-x="273" vert-adv-y="1000"  />

      
      <glyph glyph-name="uni012A" unicode="&#x012A;" d="M208 725L65 725L65 0L208 0ZM294 782L294 877L-19 877L-19 782Z"  horiz-adv-x="273" vert-adv-y="1000"  />

      
      <glyph glyph-name="uni012E" unicode="&#x012E;" d="M208 725L65 725L65 0L208 0ZM66 0C25-23-3-56-3-96C-3-163 63-188 135-188C162-188 182-187 209-180L209-98C194-102 181-106 161-106C137-106 116-99 116-72C116-45 158-25 209 0Z"  horiz-adv-x="273" vert-adv-y="1000"  />

      
      <glyph glyph-name="uni0128" unicode="&#x0128;" d="M208 725L65 725L65 0L208 0ZM195 853C152 853 135 893 73 893C32 893-45 875-64 766L30 766C35 793 49 807 78 807C117 807 139 766 202 766C244 766 319 784 338 893L245 893C238 868 224 853 195 853Z"  horiz-adv-x="273" vert-adv-y="1000"  />

      
      <glyph glyph-name="uni1ECA" unicode="&#x1ECA;" d="M208 725L65 725L65 0L208 0ZM79-56L79-175L194-175L194-56Z"  horiz-adv-x="273" vert-adv-y="1000"  />

      
      <glyph glyph-name="uni0134" unicode="&#x0134;" d="M261-13C420-13 510 84 510 237L510 725L367 725L367 237C367 138 324 104 261 104C197 104 157 138 154 237L11 237C14 90 102-13 261-13ZM499 875L380 875L240 762L370 762L439 811L505 762L636 762Z"  horiz-adv-x="575" vert-adv-y="1000"  />

      
      <glyph glyph-name="uni0136" unicode="&#x0136;" d="M208 725L65 725L65 0L208 0L208 218L308 327L522 0L691 0L404 433L671 725L504 725L208 393ZM300-136L336-136L297-231L362-231L406-142L406-36L300-36Z"  horiz-adv-x="681" vert-adv-y="1000"  />

      
      <glyph glyph-name="uni0139" unicode="&#x0139;" d="M208 725L65 725L65 0L561 0L561 116L208 116ZM342 886L173 886L70 773L183 773Z"  horiz-adv-x="561" vert-adv-y="1000"  />

      
      <glyph glyph-name="uni013D" unicode="&#x013D;" d="M208 725L65 725L65 0L561 0L561 116L208 116ZM451 725L321 725L291 555L381 555Z"  horiz-adv-x="561" vert-adv-y="1000"  />

      
      <glyph glyph-name="uni013B" unicode="&#x013B;" d="M208 725L65 725L65 0L561 0L561 116L208 116ZM262-136L298-136L259-231L324-231L368-142L368-36L262-36Z"  horiz-adv-x="561" vert-adv-y="1000"  />

      
      <glyph glyph-name="uni013F" unicode="&#x013F;" d="M208 725L65 725L65 0L561 0L561 116L208 116ZM361 489L361 376L504 376L504 489Z"  horiz-adv-x="593" vert-adv-y="1000"  />

      
      <glyph glyph-name="uni0141" unicode="&#x0141;" d="M240 725L97 725L97 379L0 318L0 193L97 254L97 0L593 0L593 116L240 116L240 344L409 451L409 577L240 470Z"  horiz-adv-x="593" vert-adv-y="1000"  />

      
      <glyph glyph-name="uni014A" unicode="&#x014A;" d="M533 0L533-14C533-59 516-67 461-67L433-67L433-176L494-176C635-176 676-147 676-4L676 725L541 725L541 247L255 725L65 725L65 0L200 0L200 568Z"  horiz-adv-x="741" vert-adv-y="1000"  />

      
      <glyph glyph-name="uni0143" unicode="&#x0143;" d="M676 0L676 725L541 725L541 172L251 725L65 725L65 0L200 0L200 553L490 0ZM586 886L417 886L314 773L427 773Z"  horiz-adv-x="741" vert-adv-y="1000"  />

      
      <glyph glyph-name="uni0147" unicode="&#x0147;" d="M676 0L676 725L541 725L541 172L251 725L65 725L65 0L200 0L200 553L490 0ZM329 773L448 773L588 886L458 886L389 836L323 886L192 886Z"  horiz-adv-x="741" vert-adv-y="1000"  />

      
      <glyph glyph-name="uni0145" unicode="&#x0145;" d="M676 0L676 725L541 725L541 172L251 725L65 725L65 0L200 0L200 553L490 0ZM319-136L355-136L316-231L381-231L425-142L425-36L319-36Z"  horiz-adv-x="741" vert-adv-y="1000"  />

      
      <glyph glyph-name="uni0152" unicode="&#x0152;" d="M589 366C589 193 502 101 387 101C275 101 184 193 184 366C184 539 275 624 387 624C502 624 589 539 589 366ZM591 0L1106 0L1106 116L720 116L720 313L1084 313L1084 429L720 429L720 609L1106 609L1106 725L591 725L591 667C540 712 474 738 387 738C171 738 36 594 36 366C36 138 171-13 387-13C474-13 540 13 591 60Z"  horiz-adv-x="1130" vert-adv-y="1000"  />

      
      <glyph glyph-name="uni014E" unicode="&#x014E;" d="M184 363C184 533 278 624 391 624C504 624 598 533 598 363C598 192 504 101 391 101C278 101 184 192 184 363ZM746 363C746 588 607 738 391 738C175 738 36 588 36 363C36 138 175-13 391-13C607-13 746 138 746 363ZM464 886C460 854 438 840 391 840C344 840 323 854 319 886L222 886C229 803 290 769 390 769C494 769 553 803 561 886Z"  horiz-adv-x="782" vert-adv-y="1000"  />

      
      <glyph glyph-name="uni0150" unicode="&#x0150;" d="M184 363C184 533 278 624 391 624C504 624 598 533 598 363C598 192 504 101 391 101C278 101 184 192 184 363ZM746 363C746 588 607 738 391 738C175 738 36 588 36 363C36 138 175-13 391-13C607-13 746 138 746 363ZM512 886L343 886L240 773L353 773ZM702 886L533 886L429 773L542 773Z"  horiz-adv-x="782" vert-adv-y="1000"  />

      
      <glyph glyph-name="uni014C" unicode="&#x014C;" d="M184 363C184 533 278 624 391 624C504 624 598 533 598 363C598 192 504 101 391 101C278 101 184 192 184 363ZM746 363C746 588 607 738 391 738C175 738 36 588 36 363C36 138 175-13 391-13C607-13 746 138 746 363ZM548 782L548 877L235 877L235 782Z"  horiz-adv-x="782" vert-adv-y="1000"  />

      
      <glyph glyph-name="uni1ECC" unicode="&#x1ECC;" d="M184 363C184 533 278 624 391 624C504 624 598 533 598 363C598 192 504 101 391 101C278 101 184 192 184 363ZM746 363C746 588 607 738 391 738C175 738 36 588 36 363C36 138 175-13 391-13C607-13 746 138 746 363ZM334-56L334-175L449-175L449-56Z"  horiz-adv-x="782" vert-adv-y="1000"  />

      
      <glyph glyph-name="uni0154" unicode="&#x0154;" d="M504 0L663 0L502 314C593 353 633 421 633 505C633 657 542 725 303 725L65 725L65 0L208 0L208 284L326 284L360 284ZM319 613C416 613 486 588 486 504C486 432 438 395 326 395L208 395L208 613ZM551 886L382 886L279 773L392 773Z"  horiz-adv-x="677" vert-adv-y="1000"  />

      
      <glyph glyph-name="uni0158" unicode="&#x0158;" d="M504 0L663 0L502 314C593 353 633 421 633 505C633 657 542 725 303 725L65 725L65 0L208 0L208 284L326 284L360 284ZM319 613C416 613 486 588 486 504C486 432 438 395 326 395L208 395L208 613ZM274 773L393 773L533 886L403 886L334 836L268 886L137 886Z"  horiz-adv-x="677" vert-adv-y="1000"  />

      
      <glyph glyph-name="uni0156" unicode="&#x0156;" d="M504 0L663 0L502 314C593 353 633 421 633 505C633 657 542 725 303 725L65 725L65 0L208 0L208 284L326 284L360 284ZM319 613C416 613 486 588 486 504C486 432 438 395 326 395L208 395L208 613ZM284-136L320-136L281-231L346-231L390-142L390-36L284-36Z"  horiz-adv-x="677" vert-adv-y="1000"  />

      
      <glyph glyph-name="uni015A" unicode="&#x015A;" d="M350 301C427 288 484 263 484 202C484 125 403 101 339 101C253 101 179 132 163 239L25 239C38 83 156-13 334-13C480-13 628 60 628 209C628 360 498 405 380 427L285 444C226 455 184 483 184 534C184 599 257 624 324 624C392 624 466 596 477 511L615 511C607 650 480 738 330 738C197 738 41 674 41 528C41 402 141 342 258 318ZM542 886L373 886L270 773L383 773Z"  horiz-adv-x="651" vert-adv-y="1000"  />

      
      <glyph glyph-name="uni0160" unicode="&#x0160;" d="M350 301C427 288 484 263 484 202C484 125 403 101 339 101C253 101 179 132 163 239L25 239C38 83 156-13 334-13C480-13 628 60 628 209C628 360 498 405 380 427L285 444C226 455 184 483 184 534C184 599 257 624 324 624C392 624 466 596 477 511L615 511C607 650 480 738 330 738C197 738 41 674 41 528C41 402 141 342 258 318ZM265 773L384 773L524 886L394 886L325 836L259 886L128 886Z"  horiz-adv-x="651" vert-adv-y="1000"  />

      
      <glyph glyph-name="uni015E" unicode="&#x015E;" d="M350 301C427 288 484 263 484 202C484 125 403 101 339 101C253 101 179 132 163 239L25 239C38 83 156-13 334-13C480-13 628 60 628 209C628 360 498 405 380 427L285 444C226 455 184 483 184 534C184 599 257 624 324 624C392 624 466 596 477 511L615 511C607 650 480 738 330 738C197 738 41 674 41 528C41 402 141 342 258 318ZM220-175C253-191 285-194 316-194C375-194 432-164 432-112C432-72 398-45 355-44C336-44 327-44 315-47L347 4L294 4L243-79L273-96C284-89 300-87 311-87C335-87 351-96 351-115C351-138 324-144 295-144C276-144 254-139 237-130Z"  horiz-adv-x="651" vert-adv-y="1000"  />

      
      <glyph glyph-name="uni015C" unicode="&#x015C;" d="M350 301C427 288 484 263 484 202C484 125 403 101 339 101C253 101 179 132 163 239L25 239C38 83 156-13 334-13C480-13 628 60 628 209C628 360 498 405 380 427L285 444C226 455 184 483 184 534C184 599 257 624 324 624C392 624 466 596 477 511L615 511C607 650 480 738 330 738C197 738 41 674 41 528C41 402 141 342 258 318ZM397 875L278 875L138 762L268 762L337 811L403 762L534 762Z"  horiz-adv-x="651" vert-adv-y="1000"  />

      
      <glyph glyph-name="uni0218" unicode="&#x0218;" d="M350 301C427 288 484 263 484 202C484 125 403 101 339 101C253 101 179 132 163 239L25 239C38 83 156-13 334-13C480-13 628 60 628 209C628 360 498 405 380 427L285 444C226 455 184 483 184 534C184 599 257 624 324 624C392 624 466 596 477 511L615 511C607 650 480 738 330 738C197 738 41 674 41 528C41 402 141 342 258 318ZM275-136L311-136L272-231L337-231L381-142L381-36L275-36Z"  horiz-adv-x="651" vert-adv-y="1000"  />

      
      <glyph glyph-name="uni0166" unicode="&#x0166;" d="M228 0L371 0L371 308L542 308L542 424L371 424L371 609L595 609L595 725L5 725L5 609L228 609L228 424L56 424L56 308L228 308Z"  horiz-adv-x="600" vert-adv-y="1000"  />

      
      <glyph glyph-name="uni0164" unicode="&#x0164;" d="M228 0L371 0L371 609L595 609L595 725L5 725L5 609L228 609ZM239 773L358 773L498 886L368 886L299 836L233 886L102 886Z"  horiz-adv-x="600" vert-adv-y="1000"  />

      
      <glyph glyph-name="uni0162" unicode="&#x0162;" d="M228 0L371 0L371 609L595 609L595 725L5 725L5 609L228 609ZM249-136L285-136L246-231L311-231L355-142L355-36L249-36Z"  horiz-adv-x="600" vert-adv-y="1000"  />

      
      <glyph glyph-name="uni021A" unicode="&#x021A;" d="M228 0L371 0L371 609L595 609L595 725L5 725L5 609L228 609ZM249-136L285-136L246-231L311-231L355-142L355-36L249-36Z"  horiz-adv-x="600" vert-adv-y="1000"  />

      
      <glyph glyph-name="uni016C" unicode="&#x016C;" d="M54 725L54 307C54 68 143-13 355-13C567-13 654 68 654 307L654 725L511 725L511 306C511 178 487 101 355 101C223 101 197 178 197 306L197 725ZM427 886C423 854 401 840 354 840C307 840 286 854 282 886L185 886C192 803 253 769 353 769C457 769 516 803 524 886Z"  horiz-adv-x="708" vert-adv-y="1000"  />

      
      <glyph glyph-name="uni0170" unicode="&#x0170;" d="M54 725L54 307C54 68 143-13 355-13C567-13 654 68 654 307L654 725L511 725L511 306C511 178 487 101 355 101C223 101 197 178 197 306L197 725ZM475 886L306 886L203 773L316 773ZM665 886L496 886L392 773L505 773Z"  horiz-adv-x="708" vert-adv-y="1000"  />

      
      <glyph glyph-name="uni016A" unicode="&#x016A;" d="M54 725L54 307C54 68 143-13 355-13C567-13 654 68 654 307L654 725L511 725L511 306C511 178 487 101 355 101C223 101 197 178 197 306L197 725ZM511 782L511 877L198 877L198 782Z"  horiz-adv-x="708" vert-adv-y="1000"  />

      
      <glyph glyph-name="uni0172" unicode="&#x0172;" d="M371-188C398-188 418-187 445-180L445-98C430-102 417-106 397-106C373-106 352-99 352-72C352-48 390-16 438-8C590 16 654 97 654 307L654 725L511 725L511 306C511 178 487 101 355 101C223 101 197 178 197 306L197 725L54 725L54 307C54 95 124 9 286-10C254-33 233-61 233-96C233-163 299-188 371-188Z"  horiz-adv-x="708" vert-adv-y="1000"  />

      
      <glyph glyph-name="uni016E" unicode="&#x016E;" d="M54 725L54 307C54 68 143-13 355-13C567-13 654 68 654 307L654 725L511 725L511 306C511 178 487 101 355 101C223 101 197 178 197 306L197 725ZM354 935C305 935 264 901 264 850C264 801 303 765 354 765C405 765 445 801 445 850C445 901 405 935 354 935ZM354 893C377 893 397 875 397 850C397 825 377 808 354 808C331 808 311 825 311 850C311 875 331 893 354 893Z"  horiz-adv-x="708" vert-adv-y="1000"  />

      
      <glyph glyph-name="uni0168" unicode="&#x0168;" d="M54 725L54 307C54 68 143-13 355-13C567-13 654 68 654 307L654 725L511 725L511 306C511 178 487 101 355 101C223 101 197 178 197 306L197 725ZM422 853C379 853 362 893 300 893C259 893 182 875 163 766L257 766C262 793 276 807 305 807C344 807 366 766 429 766C471 766 546 784 565 893L472 893C465 868 451 853 422 853Z"  horiz-adv-x="708" vert-adv-y="1000"  />

      
      <glyph glyph-name="uni1EE4" unicode="&#x1EE4;" d="M54 725L54 307C54 68 143-13 355-13C567-13 654 68 654 307L654 725L511 725L511 306C511 178 487 101 355 101C223 101 197 178 197 306L197 725ZM297-56L297-175L412-175L412-56Z"  horiz-adv-x="708" vert-adv-y="1000"  />

      
      <glyph glyph-name="uni1E82" unicode="&#x1E82;" d="M529 725L362 725L261 197L153 725L5 725L166 0L335 0L445 540L555 0L724 0L885 725L739 725L640 194ZM656 886L487 886L384 773L497 773Z"  horiz-adv-x="890" vert-adv-y="1000"  />

      
      <glyph glyph-name="uni0174" unicode="&#x0174;" d="M529 725L362 725L261 197L153 725L5 725L166 0L335 0L445 540L555 0L724 0L885 725L739 725L640 194ZM501 875L382 875L242 762L372 762L441 811L507 762L638 762Z"  horiz-adv-x="890" vert-adv-y="1000"  />

      
      <glyph glyph-name="uni1E84" unicode="&#x1E84;" d="M529 725L362 725L261 197L153 725L5 725L166 0L335 0L445 540L555 0L724 0L885 725L739 725L640 194ZM263 886L263 773L378 773L378 886ZM503 886L503 773L618 773L618 886Z"  horiz-adv-x="890" vert-adv-y="1000"  />

      
      <glyph glyph-name="uni1E80" unicode="&#x1E80;" d="M529 725L362 725L261 197L153 725L5 725L166 0L335 0L445 540L555 0L724 0L885 725L739 725L640 194ZM384 773L497 773L394 886L225 886Z"  horiz-adv-x="890" vert-adv-y="1000"  />

      
      <glyph glyph-name="uni0176" unicode="&#x0176;" d="M-11 725L250 282L250 0L393 0L393 280L660 725L497 725L325 422L156 725ZM385 875L266 875L126 762L256 762L325 811L391 762L522 762Z"  horiz-adv-x="650" vert-adv-y="1000"  />

      
      <glyph glyph-name="uni0178" unicode="&#x0178;" d="M-11 725L250 282L250 0L393 0L393 280L660 725L497 725L325 422L156 725ZM147 886L147 773L262 773L262 886ZM387 886L387 773L502 773L502 886Z"  horiz-adv-x="650" vert-adv-y="1000"  />

      
      <glyph glyph-name="uni1EF2" unicode="&#x1EF2;" d="M-11 725L250 282L250 0L393 0L393 280L660 725L497 725L325 422L156 725ZM278 773L391 773L288 886L119 886Z"  horiz-adv-x="650" vert-adv-y="1000"  />

      
      <glyph glyph-name="uni0232" unicode="&#x0232;" d="M-11 725L250 282L250 0L393 0L393 280L660 725L497 725L325 422L156 725ZM481 782L481 877L168 877L168 782Z"  horiz-adv-x="650" vert-adv-y="1000"  />

      
      <glyph glyph-name="uni0179" unicode="&#x0179;" d="M587 725L50 725L50 604L411 604L19 112L19 0L598 0L598 122L197 122L587 613ZM524 886L355 886L252 773L365 773Z"  horiz-adv-x="622" vert-adv-y="1000"  />

      
      <glyph glyph-name="uni017D" unicode="&#x017D;" d="M587 725L50 725L50 604L411 604L19 112L19 0L598 0L598 122L197 122L587 613ZM267 773L386 773L526 886L396 886L327 836L261 886L130 886Z"  horiz-adv-x="622" vert-adv-y="1000"  />

      
      <glyph glyph-name="uni017B" unicode="&#x017B;" d="M587 725L50 725L50 604L411 604L19 112L19 0L598 0L598 122L197 122L587 613ZM257 886L257 773L400 773L400 886Z"  horiz-adv-x="622" vert-adv-y="1000"  />

      
      <glyph glyph-name="uni018F" unicode="&#x018F;" d="M49 424C22 187 140-13 390-13C606-13 740 132 740 360C740 589 606 727 390 727C239 727 103 649 60 504L213 504C237 581 316 613 388 613C494 613 580 552 588 424ZM390 101C286 101 200 171 197 308L589 308C581 169 499 101 390 101Z"  horiz-adv-x="780" vert-adv-y="1000"  />

      
      <glyph glyph-name="uni0103" unicode="&#x0103;" d="M398 206C398 127 362 81 275 81C212 81 182 113 182 152C182 212 243 230 398 246ZM410 67C413 40 415 17 419 0L546 0C535 45 530 93 530 178C530 226 532 299 532 315C532 496 427 552 300 552C161 552 75 474 64 368L193 368C196 428 240 455 293 455C349 455 394 426 394 343L394 334C182 310 40 272 40 145C40 47 131-13 234-13C315-13 371 11 410 67ZM363 725C359 693 337 673 290 673C243 673 222 693 218 725L121 725C126 654 178 601 289 601C404 601 452 654 460 725Z"  horiz-adv-x="585" vert-adv-y="1000"  />

      
      <glyph glyph-name="uni0101" unicode="&#x0101;" d="M398 206C398 127 362 81 275 81C212 81 182 113 182 152C182 212 243 230 398 246ZM410 67C413 40 415 17 419 0L546 0C535 45 530 93 530 178C530 226 532 299 532 315C532 496 427 552 300 552C161 552 75 474 64 368L193 368C196 428 240 455 293 455C349 455 394 426 394 343L394 334C182 310 40 272 40 145C40 47 131-13 234-13C315-13 371 11 410 67ZM447 622L447 717L134 717L134 622Z"  horiz-adv-x="585" vert-adv-y="1000"  />

      
      <glyph glyph-name="uni0105" unicode="&#x0105;" d="M398 206C398 127 362 81 275 81C212 81 182 113 182 152C182 212 243 230 398 246ZM419 0C375-21 342-57 342-97C342-163 408-188 480-188C507-188 522-189 549-182L549-100C534-104 526-106 506-106C482-106 461-96 461-73C461-42 494-25 546 0C535 45 530 93 530 178C530 226 532 299 532 315C532 496 429 552 301 552C162 552 76 474 65 368L194 368C197 428 241 455 294 455C350 455 394 426 394 343L394 334C182 310 40 272 40 145C40 47 131-13 234-13C315-13 371 11 410 67C413 40 415 17 419 0Z"  horiz-adv-x="585" vert-adv-y="1000"  />

      
      <glyph glyph-name="uni0107" unicode="&#x0107;" d="M297 550C136 550 27 432 27 268C27 105 130-13 291-13C403-13 514 36 546 183L414 183C395 119 346 94 298 94C222 94 168 157 168 270C168 382 225 443 297 443C350 443 398 406 409 354L541 354C522 487 410 550 297 550ZM484 725L327 725L232 609L334 609Z"  horiz-adv-x="566" vert-adv-y="1000"  />

      
      <glyph glyph-name="uni010D" unicode="&#x010D;" d="M297 550C136 550 27 432 27 268C27 105 130-13 291-13C403-13 514 36 546 183L414 183C395 119 346 94 298 94C222 94 168 157 168 270C168 382 225 443 297 443C350 443 398 406 409 354L541 354C522 487 410 550 297 550ZM250 609L349 609L497 725L376 725L300 681L224 725L103 725Z"  horiz-adv-x="566" vert-adv-y="1000"  />

      
      <glyph glyph-name="uni0109" unicode="&#x0109;" d="M297 550C136 550 27 432 27 268C27 105 130-13 291-13C403-13 514 36 546 183L414 183C395 119 346 94 298 94C222 94 168 157 168 270C168 382 225 443 297 443C350 443 398 406 409 354L541 354C522 487 410 550 297 550ZM337 725L238 725L91 609L212 609L288 653L364 609L485 609Z"  horiz-adv-x="566" vert-adv-y="1000"  />

      
      <glyph glyph-name="uni010B" unicode="&#x010B;" d="M297 550C136 550 27 432 27 268C27 105 130-13 291-13C403-13 514 36 546 183L414 183C395 119 346 94 298 94C222 94 168 157 168 270C168 382 225 443 297 443C350 443 398 406 409 354L541 354C522 487 410 550 297 550ZM226 725L226 609L341 609L341 725Z"  horiz-adv-x="566" vert-adv-y="1000"  />

      
      <glyph glyph-name="uni010F" unicode="&#x010F;" d="M742 725L612 725L582 555L672 555ZM554 0L554 725L416 725L416 469C387 520 329 550 261 550C131 550 27 438 27 269C27 97 133-13 261-13C317-13 381 8 416 68L416 0ZM295 93C223 93 172 163 172 268C172 373 223 444 295 444C371 444 421 377 421 269C421 158 371 93 295 93Z"  horiz-adv-x="732" vert-adv-y="1000"  />

      
      <glyph glyph-name="uni0111" unicode="&#x0111;" d="M554 0L554 574L623 574L623 655L554 655L554 725L416 725L416 655L276 655L276 574L416 574L416 469C387 520 329 550 261 550C131 550 27 438 27 269C27 97 133-13 261-13C317-13 381 8 416 68L416 0ZM295 93C223 93 172 163 172 268C172 373 223 444 295 444C371 444 421 377 421 269C421 158 371 93 295 93Z"  horiz-adv-x="623" vert-adv-y="1000"  />

      
      <glyph glyph-name="uni0115" unicode="&#x0115;" d="M561 231C566 421 463 550 297 550C138 550 27 431 27 271C27 116 128-13 301-13C448-13 526 76 555 156L413 156C385 109 343 94 300 94C234 94 172 139 164 231ZM296 449C354 449 418 417 421 326L166 326C177 417 244 449 296 449ZM369 725C365 693 343 673 296 673C249 673 228 693 224 725L127 725C132 654 184 601 295 601C410 601 458 654 466 725Z"  horiz-adv-x="588" vert-adv-y="1000"  />

      
      <glyph glyph-name="uni011B" unicode="&#x011B;" d="M561 231C566 421 463 550 297 550C138 550 27 431 27 271C27 116 128-13 301-13C448-13 526 76 555 156L413 156C385 109 343 94 300 94C234 94 172 139 164 231ZM296 449C354 449 418 417 421 326L166 326C177 417 244 449 296 449ZM241 609L340 609L488 725L367 725L291 681L215 725L94 725Z"  horiz-adv-x="588" vert-adv-y="1000"  />

      
      <glyph glyph-name="uni0113" unicode="&#x0113;" d="M561 231C566 421 463 550 297 550C138 550 27 431 27 271C27 116 128-13 301-13C448-13 526 76 555 156L413 156C385 109 343 94 300 94C234 94 172 139 164 231ZM296 449C354 449 418 417 421 326L166 326C177 417 244 449 296 449ZM448 622L448 717L135 717L135 622Z"  horiz-adv-x="588" vert-adv-y="1000"  />

      
      <glyph glyph-name="uni0119" unicode="&#x0119;" d="M296 449C354 449 418 417 421 326L166 326C177 417 246 449 296 449ZM450-100C435-104 427-106 407-106C383-106 362-96 362-73C362-42 399-6 451 27C504 62 538 109 555 156L413 156C385 109 343 94 300 94C235 94 172 139 164 231L561 231C566 421 463 550 297 550C138 550 27 431 27 271C27 118 124-8 292-13C261-36 243-64 243-97C243-163 309-188 381-188C408-188 423-189 450-182Z"  horiz-adv-x="588" vert-adv-y="1000"  />

      
      <glyph glyph-name="uni0117" unicode="&#x0117;" d="M561 231C566 421 463 550 297 550C138 550 27 431 27 271C27 116 128-13 301-13C448-13 526 76 555 156L413 156C385 109 343 94 300 94C234 94 172 139 164 231ZM296 449C354 449 418 417 421 326L166 326C177 417 244 449 296 449ZM234 725L234 609L349 609L349 725Z"  horiz-adv-x="588" vert-adv-y="1000"  />

      
      <glyph glyph-name="uni011F" unicode="&#x011F;" d="M296 124C225 124 172 195 172 284C172 374 225 445 296 445C373 445 420 380 420 285C420 189 373 124 296 124ZM415 538L415 468C391 515 329 550 261 550C126 550 27 438 27 285C27 128 129 19 261 19C317 19 380 41 415 100L415 28C415-53 367-87 295-87C233-87 196-65 184-21L53-21C72-146 173-188 288-188C453-188 552-122 552 54L552 538ZM361 725C357 693 335 673 288 673C241 673 220 693 216 725L119 725C124 654 176 601 287 601C402 601 450 654 458 725Z"  horiz-adv-x="615" vert-adv-y="1000"  />

      
      <glyph glyph-name="uni011D" unicode="&#x011D;" d="M296 124C225 124 172 195 172 284C172 374 225 445 296 445C373 445 420 380 420 285C420 189 373 124 296 124ZM415 538L415 468C391 515 329 550 261 550C126 550 27 438 27 285C27 128 129 19 261 19C317 19 380 41 415 100L415 28C415-53 367-87 295-87C233-87 196-65 184-21L53-21C72-146 173-188 288-188C453-188 552-122 552 54L552 538ZM337 725L238 725L91 609L212 609L288 653L364 609L485 609Z"  horiz-adv-x="615" vert-adv-y="1000"  />

      
      <glyph glyph-name="uni0123" unicode="&#x0123;" d="M349 707L314 707L352 803L288 803L244 713L244 607L349 607ZM296 124C225 124 172 195 172 284C172 374 225 445 296 445C373 445 420 380 420 285C420 189 373 124 296 124ZM415 538L415 468C391 515 329 550 261 550C126 550 27 438 27 285C27 128 129 19 261 19C317 19 380 41 415 100L415 28C415-53 367-87 295-87C233-87 196-65 184-21L53-21C72-146 173-188 288-188C453-188 552-122 552 54L552 538Z"  horiz-adv-x="615" vert-adv-y="1000"  />

      
      <glyph glyph-name="uni0121" unicode="&#x0121;" d="M296 124C225 124 172 195 172 284C172 374 225 445 296 445C373 445 420 380 420 285C420 189 373 124 296 124ZM415 538L415 468C391 515 329 550 261 550C126 550 27 438 27 285C27 128 129 19 261 19C317 19 380 41 415 100L415 28C415-53 367-87 295-87C233-87 196-65 184-21L53-21C72-146 173-188 288-188C453-188 552-122 552 54L552 538ZM228 725L228 609L343 609L343 725Z"  horiz-adv-x="615" vert-adv-y="1000"  />

      
      <glyph glyph-name="uni0127" unicode="&#x0127;" d="M227 725L89 725L89 655L5 655L5 574L89 574L89 0L227 0L227 280C227 365 247 439 338 439C416 439 431 378 431 309L431 0L569 0L569 339C569 472 512 550 383 550C316 550 258 522 227 467L227 574L353 574L353 655L227 655Z"  horiz-adv-x="623" vert-adv-y="1000"  />

      
      <glyph glyph-name="uni0125" unicode="&#x0125;" d="M200 725L62 725L62 0L200 0L200 280C200 365 220 439 311 439C389 439 404 378 404 309L404 0L542 0L542 339C542 472 485 550 356 550C289 550 231 522 200 467ZM193 875L74 875L-66 762L64 762L133 811L199 762L330 762Z"  horiz-adv-x="596" vert-adv-y="1000"  />

      
      <glyph glyph-name="uni0131" unicode="&#x0131;" d="M62 538L62 0L200 0L200 538Z"  horiz-adv-x="262" vert-adv-y="1000"  />

      
      <glyph glyph-name="uni012D" unicode="&#x012D;" d="M62 538L62 0L200 0L200 538ZM205 725C201 693 179 673 132 673C85 673 64 693 60 725L-37 725C-32 654 20 601 131 601C246 601 294 654 302 725Z"  horiz-adv-x="262" vert-adv-y="1000"  />

      
      <glyph glyph-name="uni012B" unicode="&#x012B;" d="M62 538L62 0L200 0L200 538ZM289 622L289 717L-24 717L-24 622Z"  horiz-adv-x="262" vert-adv-y="1000"  />

      
      <glyph glyph-name="uni012F" unicode="&#x012F;" d="M62 0C21-23-7-57-7-97C-7-163 59-188 131-188C158-188 173-189 200-182L200-100C185-104 177-106 157-106C133-106 112-96 112-73C112-42 149-25 200 0L200 538L62 538ZM62 725L62 597L200 597L200 725Z"  horiz-adv-x="262" vert-adv-y="1000"  />

      
      <glyph glyph-name="uni0129" unicode="&#x0129;" d="M62 538L62 0L200 0L200 538ZM191 692C145 692 125 736 61 736C18 736-53 726-72 609L23 609C28 638 45 653 72 653C112 653 140 609 203 609C246 609 317 618 336 736L241 736C236 707 219 692 191 692Z"  horiz-adv-x="262" vert-adv-y="1000"  />

      
      <glyph glyph-name="uni1ECB" unicode="&#x1ECB;" d="M62 725L62 597L200 597L200 725ZM62 538L62 0L200 0L200 538ZM74-56L74-175L189-175L189-56Z"  horiz-adv-x="262" vert-adv-y="1000"  />

      
      <glyph glyph-name="uni0237" unicode="&#x0237;" d="M62 6C62-53 60-72 8-72L-10-72L-10-175L26-175C162-175 200-145 200 4L200 538L62 538Z"  horiz-adv-x="262" vert-adv-y="1000"  />

      
      <glyph glyph-name="uni0135" unicode="&#x0135;" d="M62 6C62-53 60-72 8-72L-10-72L-10-175L26-175C162-175 200-145 200 4L200 538L62 538ZM181 725L82 725L-65 609L56 609L132 653L208 609L329 609Z"  horiz-adv-x="262" vert-adv-y="1000"  />

      
      <glyph glyph-name="uni0137" unicode="&#x0137;" d="M62 725L62 0L200 0L200 162L266 233L407 0L562 0L358 332L551 538L396 538L200 322L200 725ZM243-136L279-136L240-231L305-231L349-142L349-36L243-36Z"  horiz-adv-x="555" vert-adv-y="1000"  />

      
      <glyph glyph-name="uni013A" unicode="&#x013A;" d="M200 725L62 725L62 0L200 0ZM347 886L178 886L75 773L188 773Z"  horiz-adv-x="262" vert-adv-y="1000"  />

      
      <glyph glyph-name="uni013E" unicode="&#x013E;" d="M392 725L262 725L232 555L322 555ZM200 725L62 725L62 0L200 0Z"  horiz-adv-x="382" vert-adv-y="1000"  />

      
      <glyph glyph-name="uni013C" unicode="&#x013C;" d="M200 725L62 725L62 0L200 0ZM80-136L116-136L77-231L142-231L186-142L186-36L80-36Z"  horiz-adv-x="262" vert-adv-y="1000"  />

      
      <glyph glyph-name="uni0140" unicode="&#x0140;" d="M200 725L62 725L62 0L200 0ZM262 479L262 363L377 363L377 479Z"  horiz-adv-x="377" vert-adv-y="1000"  />

      
      <glyph glyph-name="uni0142" unicode="&#x0142;" d="M221 725L83 725L83 403L10 362L10 250L83 291L83 0L221 0L221 369L294 411L294 523L221 481Z"  horiz-adv-x="304" vert-adv-y="1000"  />

      
      <glyph glyph-name="uni014B" unicode="&#x014B;" d="M542 339C542 472 485 550 356 550C289 550 231 522 200 467L200 538L62 538L62 0L200 0L200 280C200 365 220 439 311 439C389 439 404 378 404 309L404-4C404-62 394-75 330-75L306-75L306-176L357-176C481-176 542-157 542-6Z"  horiz-adv-x="596" vert-adv-y="1000"  />

      
      <glyph glyph-name="uni0144" unicode="&#x0144;" d="M200 538L62 538L62 0L200 0L200 280C200 365 220 439 311 439C389 439 404 378 404 309L404 0L542 0L542 339C542 472 485 550 356 550C289 550 231 522 200 467ZM503 725L346 725L251 609L353 609Z"  horiz-adv-x="596" vert-adv-y="1000"  />

      
      <glyph glyph-name="uni0148" unicode="&#x0148;" d="M200 538L62 538L62 0L200 0L200 280C200 365 220 439 311 439C389 439 404 378 404 309L404 0L542 0L542 339C542 472 485 550 356 550C289 550 231 522 200 467ZM252 609L351 609L499 725L378 725L302 681L226 725L105 725Z"  horiz-adv-x="596" vert-adv-y="1000"  />

      
      <glyph glyph-name="uni0146" unicode="&#x0146;" d="M200 538L62 538L62 0L200 0L200 280C200 365 220 439 311 439C389 439 404 378 404 309L404 0L542 0L542 339C542 472 485 550 356 550C289 550 231 522 200 467ZM241-136L277-136L238-231L303-231L347-142L347-36L241-36Z"  horiz-adv-x="596" vert-adv-y="1000"  />

      
      <glyph glyph-name="uni0153" unicode="&#x0153;" d="M296-13C373-13 443 16 490 77C534 21 601-13 692-13C839-13 917 76 946 156L804 156C776 109 734 94 691 94C625 94 563 139 555 231L952 231C957 421 854 550 688 550C603 550 536 516 489 459C442 520 373 550 296 550C160 550 26 457 26 268C26 80 160-13 296-13ZM296 442C372 442 426 381 426 268C426 155 372 95 296 95C220 95 166 155 166 268C166 381 220 442 296 442ZM687 449C745 449 809 417 812 326L557 326C568 417 635 449 687 449Z"  horiz-adv-x="979" vert-adv-y="1000"  />

      
      <glyph glyph-name="uni014F" unicode="&#x014F;" d="M296 442C372 442 426 381 426 268C426 155 372 95 296 95C220 95 166 155 166 268C166 381 220 442 296 442ZM296-13C432-13 566 80 566 268C566 457 432 550 296 550C160 550 26 457 26 268C26 80 160-13 296-13ZM365 725C361 693 339 673 292 673C245 673 224 693 220 725L123 725C128 654 180 601 291 601C406 601 454 654 462 725Z"  horiz-adv-x="592" vert-adv-y="1000"  />

      
      <glyph glyph-name="uni0151" unicode="&#x0151;" d="M296 442C372 442 426 381 426 268C426 155 372 95 296 95C220 95 166 155 166 268C166 381 220 442 296 442ZM296-13C432-13 566 80 566 268C566 457 432 550 296 550C160 550 26 457 26 268C26 80 160-13 296-13ZM396 725L239 725L144 609L246 609ZM589 725L432 725L338 609L440 609Z"  horiz-adv-x="592" vert-adv-y="1000"  />

      
      <glyph glyph-name="uni014D" unicode="&#x014D;" d="M296 442C372 442 426 381 426 268C426 155 372 95 296 95C220 95 166 155 166 268C166 381 220 442 296 442ZM296-13C432-13 566 80 566 268C566 457 432 550 296 550C160 550 26 457 26 268C26 80 160-13 296-13ZM449 622L449 717L136 717L136 622Z"  horiz-adv-x="592" vert-adv-y="1000"  />

      
      <glyph glyph-name="uni1ECD" unicode="&#x1ECD;" d="M296 442C372 442 426 381 426 268C426 155 372 95 296 95C220 95 166 155 166 268C166 381 220 442 296 442ZM296-13C432-13 566 80 566 268C566 457 432 550 296 550C160 550 26 457 26 268C26 80 160-13 296-13ZM235-56L235-175L350-175L350-56Z"  horiz-adv-x="592" vert-adv-y="1000"  />

      
      <glyph glyph-name="uni0155" unicode="&#x0155;" d="M370 535C361 536 349 537 340 537C277 537 229 511 198 444L198 538L62 538L62 0L200 0L200 282C200 383 245 408 313 408C333 408 350 408 370 405ZM417 725L260 725L165 609L267 609Z"  horiz-adv-x="379" vert-adv-y="1000"  />

      
      <glyph glyph-name="uni0159" unicode="&#x0159;" d="M370 535C361 536 349 537 340 537C277 537 229 511 198 444L198 538L62 538L62 0L200 0L200 282C200 383 245 408 313 408C333 408 350 408 370 405ZM167 609L266 609L414 725L293 725L217 681L141 725L20 725Z"  horiz-adv-x="379" vert-adv-y="1000"  />

      
      <glyph glyph-name="uni0157" unicode="&#x0157;" d="M370 535C361 536 349 537 340 537C277 537 229 511 198 444L198 538L62 538L62 0L200 0L200 282C200 383 245 408 313 408C333 408 350 408 370 405ZM78-136L114-136L75-231L140-231L184-142L184-36L78-36Z"  horiz-adv-x="379" vert-adv-y="1000"  />

      
      <glyph glyph-name="uni015B" unicode="&#x015B;" d="M494 376C475 500 369 552 257 552C141 552 37 488 37 392C37 294 104 252 205 231L285 214C332 203 373 188 373 148C373 109 336 87 276 87C204 87 168 126 160 178L27 178C40 55 140-13 272-13C394-13 505 53 505 161C505 272 414 299 307 323L235 339C184 350 163 372 163 401C163 434 199 453 250 453C314 453 354 421 365 376ZM467 725L310 725L215 609L317 609Z"  horiz-adv-x="529" vert-adv-y="1000"  />

      
      <glyph glyph-name="uni0161" unicode="&#x0161;" d="M494 376C475 500 369 552 257 552C141 552 37 488 37 392C37 294 104 252 205 231L285 214C332 203 373 188 373 148C373 109 336 87 276 87C204 87 168 126 160 178L27 178C40 55 140-13 272-13C394-13 505 53 505 161C505 272 414 299 307 323L235 339C184 350 163 372 163 401C163 434 199 453 250 453C314 453 354 421 365 376ZM216 609L315 609L463 725L342 725L266 681L190 725L69 725Z"  horiz-adv-x="529" vert-adv-y="1000"  />

      
      <glyph glyph-name="uni015F" unicode="&#x015F;" d="M494 376C475 500 369 552 257 552C141 552 37 488 37 392C37 294 104 252 205 231L285 214C332 203 373 188 373 148C373 109 336 87 276 87C204 87 168 126 160 178L27 178C40 55 140-13 272-13C394-13 505 53 505 161C505 272 414 299 307 323L235 339C184 350 163 372 163 401C163 434 199 453 250 453C314 453 354 421 365 376ZM162-176C195-192 227-195 258-195C317-195 374-165 374-113C374-73 340-46 297-45C278-45 269-45 257-48L289 3L236 3L185-80L215-97C226-90 242-88 253-88C277-88 293-97 293-116C293-139 266-145 237-145C218-145 196-140 179-131Z"  horiz-adv-x="529" vert-adv-y="1000"  />

      
      <glyph glyph-name="uni015D" unicode="&#x015D;" d="M494 376C475 500 369 552 257 552C141 552 37 488 37 392C37 294 104 252 205 231L285 214C332 203 373 188 373 148C373 109 336 87 276 87C204 87 168 126 160 178L27 178C40 55 140-13 272-13C394-13 505 53 505 161C505 272 414 299 307 323L235 339C184 350 163 372 163 401C163 434 199 453 250 453C314 453 354 421 365 376ZM315 725L216 725L69 609L190 609L266 653L342 609L463 609Z"  horiz-adv-x="529" vert-adv-y="1000"  />

      
      <glyph glyph-name="uni0219" unicode="&#x0219;" d="M494 376C475 500 369 552 257 552C141 552 37 488 37 392C37 294 104 252 205 231L285 214C332 203 373 188 373 148C373 109 336 87 276 87C204 87 168 126 160 178L27 178C40 55 140-13 272-13C394-13 505 53 505 161C505 272 414 299 307 323L235 339C184 350 163 372 163 401C163 434 199 453 250 453C314 453 354 421 365 376ZM215-136L251-136L212-231L277-231L321-142L321-36L215-36Z"  horiz-adv-x="529" vert-adv-y="1000"  />

      
      <glyph glyph-name="uni0167" unicode="&#x0167;" d="M81 538L5 538L5 443L81 443L81 366L5 366L5 264L81 264L81 145C81 38 104 0 228 0L329 0L329 99L287 99C238 99 219 110 219 165L219 264L331 264L331 366L219 366L219 443L331 443L331 538L219 538L219 684L81 684Z"  horiz-adv-x="357" vert-adv-y="1000"  />

      
      <glyph glyph-name="uni0165" unicode="&#x0165;" d="M456 725L326 725L296 575L386 575ZM81 538L5 538L5 443L81 443L81 145C81 38 104 0 228 0L329 0L329 99L287 99C238 99 219 110 219 165L219 443L331 443L331 538L219 538L219 684L81 684Z"  horiz-adv-x="446" vert-adv-y="1000"  />

      
      <glyph glyph-name="uni0163" unicode="&#x0163;" d="M81 538L5 538L5 443L81 443L81 145C81 38 104 0 228 0L329 0L329 99L287 99C238 99 219 110 219 165L219 443L331 443L331 538L219 538L219 684L81 684ZM117-136L153-136L114-231L179-231L223-142L223-36L117-36Z"  horiz-adv-x="357" vert-adv-y="1000"  />

      
      <glyph glyph-name="uni021B" unicode="&#x021B;" d="M81 538L5 538L5 443L81 443L81 145C81 38 104 0 228 0L329 0L329 99L287 99C238 99 219 110 219 165L219 443L331 443L331 538L219 538L219 684L81 684ZM117-136L153-136L114-231L179-231L223-142L223-36L117-36Z"  horiz-adv-x="357" vert-adv-y="1000"  />

      
      <glyph glyph-name="uni016D" unicode="&#x016D;" d="M393 0L531 0L531 538L393 538L393 258C393 173 373 98 281 98C204 98 193 156 193 228L193 538L55 538L55 198C55 66 107-13 236-13C303-13 362 16 393 71ZM366 725C362 693 340 673 293 673C246 673 225 693 221 725L124 725C129 654 181 601 292 601C407 601 455 654 463 725Z"  horiz-adv-x="593" vert-adv-y="1000"  />

      
      <glyph glyph-name="uni0171" unicode="&#x0171;" d="M393 0L531 0L531 538L393 538L393 258C393 173 373 98 281 98C204 98 193 156 193 228L193 538L55 538L55 198C55 66 107-13 236-13C303-13 362 16 393 71ZM397 725L240 725L145 609L247 609ZM590 725L433 725L339 609L441 609Z"  horiz-adv-x="593" vert-adv-y="1000"  />

      
      <glyph glyph-name="uni016B" unicode="&#x016B;" d="M393 0L531 0L531 538L393 538L393 258C393 173 373 98 281 98C204 98 193 156 193 228L193 538L55 538L55 198C55 66 107-13 236-13C303-13 362 16 393 71ZM450 622L450 717L137 717L137 622Z"  horiz-adv-x="593" vert-adv-y="1000"  />

      
      <glyph glyph-name="uni0173" unicode="&#x0173;" d="M393 0L531 0L531 538L393 538L393 258C393 173 373 98 281 98C204 98 193 156 193 228L193 538L55 538L55 198C55 66 107-13 236-13C303-13 362 16 393 71ZM393 0C352-23 324-57 324-97C324-163 390-188 462-188C489-188 504-189 531-182L531-100C516-104 508-106 488-106C464-106 443-96 443-73C443-42 480-25 531 0Z"  horiz-adv-x="593" vert-adv-y="1000"  />

      
      <glyph glyph-name="uni016F" unicode="&#x016F;" d="M393 0L531 0L531 538L393 538L393 258C393 173 373 98 281 98C204 98 193 156 193 228L193 538L55 538L55 198C55 66 107-13 236-13C303-13 362 16 393 71ZM294 785C242 785 199 748 199 696C199 644 241 607 294 607C346 607 388 645 388 696C388 748 345 785 294 785ZM294 737C317 737 335 720 335 696C335 673 317 656 294 656C271 656 253 673 253 696C253 720 271 737 294 737Z"  horiz-adv-x="593" vert-adv-y="1000"  />

      
      <glyph glyph-name="uni0169" unicode="&#x0169;" d="M393 0L531 0L531 538L393 538L393 258C393 173 373 98 281 98C204 98 193 156 193 228L193 538L55 538L55 198C55 66 107-13 236-13C303-13 362 16 393 71ZM362 692C316 692 296 736 232 736C189 736 118 726 99 609L194 609C199 638 216 653 243 653C283 653 311 609 374 609C417 609 488 618 507 736L412 736C407 707 390 692 362 692Z"  horiz-adv-x="593" vert-adv-y="1000"  />

      
      <glyph glyph-name="uni1EE5" unicode="&#x1EE5;" d="M393 0L531 0L531 538L393 538L393 258C393 173 373 98 281 98C204 98 193 156 193 228L193 538L55 538L55 198C55 66 107-13 236-13C303-13 362 16 393 71ZM236-56L236-175L351-175L351-56Z"  horiz-adv-x="593" vert-adv-y="1000"  />

      
      <glyph glyph-name="uni1E83" unicode="&#x1E83;" d="M209 166L137 538L0 538L126 0L268 0L367 408L465 0L607 0L734 538L597 538L525 167L440 538L293 538ZM568 725L411 725L316 609L418 609Z"  horiz-adv-x="734" vert-adv-y="1000"  />

      
      <glyph glyph-name="uni0175" unicode="&#x0175;" d="M209 166L137 538L0 538L126 0L268 0L367 408L465 0L607 0L734 538L597 538L525 167L440 538L293 538ZM416 725L317 725L170 609L291 609L367 653L443 609L564 609Z"  horiz-adv-x="734" vert-adv-y="1000"  />

      
      <glyph glyph-name="uni1E85" unicode="&#x1E85;" d="M209 166L137 538L0 538L126 0L268 0L367 408L465 0L607 0L734 538L597 538L525 167L440 538L293 538ZM190 609L305 609L305 725L190 725ZM430 725L430 609L545 609L545 725Z"  horiz-adv-x="734" vert-adv-y="1000"  />

      
      <glyph glyph-name="uni1E81" unicode="&#x1E81;" d="M209 166L137 538L0 538L126 0L268 0L367 408L465 0L607 0L734 538L597 538L525 167L440 538L293 538ZM316 609L418 609L323 725L166 725Z"  horiz-adv-x="734" vert-adv-y="1000"  />

      
      <glyph glyph-name="uni0177" unicode="&#x0177;" d="M116-175C250-175 277-151 341 16L538 538L398 538L273 150L151 538L0 538L206 2L200-13C176-70 156-69 110-69L58-69L58-175ZM318 725L219 725L72 609L193 609L269 653L345 609L466 609Z"  horiz-adv-x="538" vert-adv-y="1000"  />

      
      </font>
</defs>
</svg>
