<?xml version="1.0" encoding="utf-8"?><svg xmlns="http://www.w3.org/2000/svg" xmlns:xlink="http://www.w3.org/1999/xlink">
<symbol viewBox="0 0 16 16" id="close" xmlns="http://www.w3.org/2000/svg">
    <path d="M14.0014 0L8 6L2 0L0 2L6 8L0 14L2 16L8 10L14.0014 16L16.0014 14L10.0014 8L16.0014 2L14.0014 0Z"/>
</symbol><symbol viewBox="0 0 19 28" id="fast_part1" xmlns="http://www.w3.org/2000/svg">
    <path d="M2.52013 27.5611C0.850713 24.6561 -0.0234515 21.2915 0.000478457 17.863C0.0244084 14.4344 0.945437 11.0847 2.65521 8.20782C4.36497 5.33095 6.79236 3.04662 9.65177 1.62359C12.5112 0.200563 15.6837 -0.301966 18.796 0.175128L18.4912 2.54096C15.792 2.12719 13.0406 2.56302 10.5607 3.79718C8.08082 5.03133 5.97561 7.01247 4.49278 9.50751C3.00994 12.0025 2.21116 14.9077 2.1904 17.8811C2.16965 20.8546 2.92779 23.7727 4.37563 26.2921L2.52013 27.5611Z"/>
</symbol><symbol viewBox="0 0 27 33" id="fast_part2" xmlns="http://www.w3.org/2000/svg">
    <path d="M20.3891 0.591187C23.8921 3.45239 26.2098 7.71447 26.8322 12.4398C27.4547 17.1652 26.3309 21.9667 23.7081 25.7882C21.0853 29.6097 17.1784 32.138 12.8469 32.817C8.51528 33.4961 4.11385 32.2701 0.61084 29.4089L1.92339 27.4965C4.96146 29.9779 8.7787 31.0411 12.5354 30.4523C16.292 29.8634 19.6804 27.6706 21.955 24.3563C24.2297 21.0421 25.2043 16.8778 24.6645 12.7796C24.1247 8.68146 22.1147 4.98507 19.0766 2.50362L20.3891 0.591187Z"/>
</symbol></svg>